G75*
G70*
%OFA0B0*%
%FSLAX24Y24*%
%IPPOS*%
%LPD*%
%AMOC8*
5,1,8,0,0,1.08239X$1,22.5*
%
%ADD10C,0.0060*%
%ADD11R,0.0260X0.0800*%
%ADD12C,0.0236*%
%ADD13R,0.0413X0.0512*%
%ADD14R,0.0220X0.0500*%
%ADD15R,0.0500X0.0220*%
%ADD16R,0.0800X0.0260*%
%ADD17R,0.0512X0.0413*%
%ADD18R,0.2100X0.0760*%
%ADD19C,0.0709*%
%ADD20C,0.0594*%
%ADD21C,0.0600*%
%ADD22OC8,0.0600*%
%ADD23R,0.0315X0.0315*%
%ADD24C,0.0600*%
%ADD25R,0.0512X0.0354*%
%ADD26R,0.0669X0.0492*%
%ADD27C,0.0160*%
%ADD28C,0.0396*%
%ADD29C,0.0320*%
%ADD30C,0.0240*%
%ADD31OC8,0.0396*%
D10*
X003896Y003162D02*
X003896Y003803D01*
X004216Y003803D01*
X004323Y003696D01*
X004323Y003482D01*
X004216Y003376D01*
X003896Y003376D01*
X003679Y003482D02*
X003679Y003696D01*
X003572Y003803D01*
X003358Y003803D01*
X003251Y003696D01*
X003251Y003482D01*
X003358Y003376D01*
X003572Y003376D01*
X003679Y003482D01*
X003035Y003376D02*
X002929Y003482D01*
X002929Y003909D01*
X003035Y003803D02*
X002822Y003803D01*
X014572Y003696D02*
X014679Y003803D01*
X014999Y003803D01*
X014892Y003589D02*
X014679Y003589D01*
X014572Y003696D01*
X014572Y003376D02*
X014892Y003376D01*
X014999Y003482D01*
X014892Y003589D01*
X015216Y003589D02*
X015643Y003589D01*
X015643Y003696D01*
X015537Y003803D01*
X015323Y003803D01*
X015216Y003696D01*
X015216Y003482D01*
X015323Y003376D01*
X015537Y003376D01*
X015861Y003376D02*
X015861Y003803D01*
X016074Y003803D02*
X016181Y003803D01*
X016074Y003803D02*
X015861Y003589D01*
X016398Y003803D02*
X016611Y003376D01*
X016825Y003803D01*
X017042Y003696D02*
X017149Y003803D01*
X017363Y003803D01*
X017469Y003696D01*
X017469Y003589D01*
X017042Y003589D01*
X017042Y003482D02*
X017042Y003696D01*
X017042Y003482D02*
X017149Y003376D01*
X017363Y003376D01*
X017687Y003376D02*
X017687Y003803D01*
X017901Y003803D02*
X018007Y003803D01*
X017901Y003803D02*
X017687Y003589D01*
X018224Y003376D02*
X018438Y003376D01*
X018331Y003376D02*
X018331Y004016D01*
X018224Y004016D01*
X018654Y003696D02*
X018761Y003803D01*
X018974Y003803D01*
X019081Y003696D01*
X019081Y003589D01*
X018654Y003589D01*
X018654Y003482D02*
X018654Y003696D01*
X018654Y003482D02*
X018761Y003376D01*
X018974Y003376D01*
X019298Y003482D02*
X019298Y003696D01*
X019405Y003803D01*
X019725Y003803D01*
X019725Y004016D02*
X019725Y003376D01*
X019405Y003376D01*
X019298Y003482D01*
X019943Y003376D02*
X020263Y003376D01*
X020370Y003482D01*
X020263Y003589D01*
X020050Y003589D01*
X019943Y003696D01*
X020050Y003803D01*
X020370Y003803D01*
X022072Y003909D02*
X022179Y004016D01*
X022392Y004016D01*
X022499Y003909D01*
X022499Y003803D01*
X022072Y003376D01*
X022499Y003376D01*
X022716Y003482D02*
X023143Y003909D01*
X023143Y003482D01*
X023037Y003376D01*
X022823Y003376D01*
X022716Y003482D01*
X022716Y003909D01*
X022823Y004016D01*
X023037Y004016D01*
X023143Y003909D01*
X023361Y003803D02*
X023574Y004016D01*
X023574Y003376D01*
X023361Y003376D02*
X023788Y003376D01*
X024005Y003376D02*
X024432Y003376D01*
X024219Y003376D02*
X024219Y004016D01*
X024005Y003803D01*
X024650Y003909D02*
X024757Y004016D01*
X024970Y004016D01*
X025077Y003909D01*
X024650Y003482D01*
X024757Y003376D01*
X024970Y003376D01*
X025077Y003482D01*
X025077Y003909D01*
X025294Y003696D02*
X025615Y003696D01*
X025721Y003589D01*
X025721Y003482D01*
X025615Y003376D01*
X025401Y003376D01*
X025294Y003482D01*
X025294Y003696D01*
X025508Y003909D01*
X025721Y004016D01*
X025939Y003909D02*
X026046Y004016D01*
X026259Y004016D01*
X026366Y003909D01*
X026366Y003803D01*
X025939Y003376D01*
X026366Y003376D01*
X026584Y003376D02*
X027011Y003803D01*
X027011Y003909D01*
X026904Y004016D01*
X026690Y004016D01*
X026584Y003909D01*
X026584Y003376D02*
X027011Y003376D01*
X024650Y003482D02*
X024650Y003909D01*
D11*
X023167Y007636D03*
X022667Y007636D03*
X022167Y007636D03*
X021667Y007636D03*
X021167Y007636D03*
X020667Y007636D03*
X020167Y007636D03*
X019667Y007636D03*
X016167Y007636D03*
X015667Y007636D03*
X015167Y007636D03*
X014667Y007636D03*
X014167Y007636D03*
X013667Y007636D03*
X013167Y007636D03*
X012667Y007636D03*
X009167Y007636D03*
X008667Y007636D03*
X008167Y007636D03*
X007667Y007636D03*
X007167Y007636D03*
X006667Y007636D03*
X006167Y007636D03*
X005667Y007636D03*
X005667Y010056D03*
X006167Y010056D03*
X006667Y010056D03*
X007167Y010056D03*
X007667Y010056D03*
X008167Y010056D03*
X008667Y010056D03*
X009167Y010056D03*
X012667Y010056D03*
X013167Y010056D03*
X013667Y010056D03*
X014167Y010056D03*
X014667Y010056D03*
X015167Y010056D03*
X015667Y010056D03*
X016167Y010056D03*
X019667Y010056D03*
X020167Y010056D03*
X020667Y010056D03*
X021167Y010056D03*
X021667Y010056D03*
X022167Y010056D03*
X022667Y010056D03*
X023167Y010056D03*
X026667Y010056D03*
X027167Y010056D03*
X027667Y010056D03*
X028167Y010056D03*
X028667Y010056D03*
X029167Y010056D03*
X029667Y010056D03*
X030167Y010056D03*
X030167Y007636D03*
X029667Y007636D03*
X029167Y007636D03*
X028667Y007636D03*
X028167Y007636D03*
X027667Y007636D03*
X027167Y007636D03*
X026667Y007636D03*
D12*
X027070Y012427D02*
X027070Y013765D01*
X028014Y013765D01*
X028014Y012427D01*
X027070Y012427D01*
X027070Y012662D02*
X028014Y012662D01*
X028014Y012897D02*
X027070Y012897D01*
X027070Y013132D02*
X028014Y013132D01*
X028014Y013367D02*
X027070Y013367D01*
X027070Y013602D02*
X028014Y013602D01*
X028820Y013765D02*
X028820Y012427D01*
X028820Y013765D02*
X029764Y013765D01*
X029764Y012427D01*
X028820Y012427D01*
X028820Y012662D02*
X029764Y012662D01*
X029764Y012897D02*
X028820Y012897D01*
X028820Y013132D02*
X029764Y013132D01*
X029764Y013367D02*
X028820Y013367D01*
X028820Y013602D02*
X029764Y013602D01*
X030570Y013765D02*
X030570Y012427D01*
X030570Y013765D02*
X031514Y013765D01*
X031514Y012427D01*
X030570Y012427D01*
X030570Y012662D02*
X031514Y012662D01*
X031514Y012897D02*
X030570Y012897D01*
X030570Y013132D02*
X031514Y013132D01*
X031514Y013367D02*
X030570Y013367D01*
X030570Y013602D02*
X031514Y013602D01*
X025320Y013765D02*
X025320Y012427D01*
X025320Y013765D02*
X026264Y013765D01*
X026264Y012427D01*
X025320Y012427D01*
X025320Y012662D02*
X026264Y012662D01*
X026264Y012897D02*
X025320Y012897D01*
X025320Y013132D02*
X026264Y013132D01*
X026264Y013367D02*
X025320Y013367D01*
X025320Y013602D02*
X026264Y013602D01*
X023570Y013765D02*
X023570Y012427D01*
X023570Y013765D02*
X024514Y013765D01*
X024514Y012427D01*
X023570Y012427D01*
X023570Y012662D02*
X024514Y012662D01*
X024514Y012897D02*
X023570Y012897D01*
X023570Y013132D02*
X024514Y013132D01*
X024514Y013367D02*
X023570Y013367D01*
X023570Y013602D02*
X024514Y013602D01*
X021820Y013765D02*
X021820Y012427D01*
X021820Y013765D02*
X022764Y013765D01*
X022764Y012427D01*
X021820Y012427D01*
X021820Y012662D02*
X022764Y012662D01*
X022764Y012897D02*
X021820Y012897D01*
X021820Y013132D02*
X022764Y013132D01*
X022764Y013367D02*
X021820Y013367D01*
X021820Y013602D02*
X022764Y013602D01*
X020070Y013765D02*
X020070Y012427D01*
X020070Y013765D02*
X021014Y013765D01*
X021014Y012427D01*
X020070Y012427D01*
X020070Y012662D02*
X021014Y012662D01*
X021014Y012897D02*
X020070Y012897D01*
X020070Y013132D02*
X021014Y013132D01*
X021014Y013367D02*
X020070Y013367D01*
X020070Y013602D02*
X021014Y013602D01*
X018320Y013765D02*
X018320Y012427D01*
X018320Y013765D02*
X019264Y013765D01*
X019264Y012427D01*
X018320Y012427D01*
X018320Y012662D02*
X019264Y012662D01*
X019264Y012897D02*
X018320Y012897D01*
X018320Y013132D02*
X019264Y013132D01*
X019264Y013367D02*
X018320Y013367D01*
X018320Y013602D02*
X019264Y013602D01*
X016570Y013765D02*
X016570Y012427D01*
X016570Y013765D02*
X017514Y013765D01*
X017514Y012427D01*
X016570Y012427D01*
X016570Y012662D02*
X017514Y012662D01*
X017514Y012897D02*
X016570Y012897D01*
X016570Y013132D02*
X017514Y013132D01*
X017514Y013367D02*
X016570Y013367D01*
X016570Y013602D02*
X017514Y013602D01*
X014820Y013765D02*
X014820Y012427D01*
X014820Y013765D02*
X015764Y013765D01*
X015764Y012427D01*
X014820Y012427D01*
X014820Y012662D02*
X015764Y012662D01*
X015764Y012897D02*
X014820Y012897D01*
X014820Y013132D02*
X015764Y013132D01*
X015764Y013367D02*
X014820Y013367D01*
X014820Y013602D02*
X015764Y013602D01*
X013070Y013765D02*
X013070Y012427D01*
X013070Y013765D02*
X014014Y013765D01*
X014014Y012427D01*
X013070Y012427D01*
X013070Y012662D02*
X014014Y012662D01*
X014014Y012897D02*
X013070Y012897D01*
X013070Y013132D02*
X014014Y013132D01*
X014014Y013367D02*
X013070Y013367D01*
X013070Y013602D02*
X014014Y013602D01*
X011320Y013765D02*
X011320Y012427D01*
X011320Y013765D02*
X012264Y013765D01*
X012264Y012427D01*
X011320Y012427D01*
X011320Y012662D02*
X012264Y012662D01*
X012264Y012897D02*
X011320Y012897D01*
X011320Y013132D02*
X012264Y013132D01*
X012264Y013367D02*
X011320Y013367D01*
X011320Y013602D02*
X012264Y013602D01*
X009570Y013765D02*
X009570Y012427D01*
X009570Y013765D02*
X010514Y013765D01*
X010514Y012427D01*
X009570Y012427D01*
X009570Y012662D02*
X010514Y012662D01*
X010514Y012897D02*
X009570Y012897D01*
X009570Y013132D02*
X010514Y013132D01*
X010514Y013367D02*
X009570Y013367D01*
X009570Y013602D02*
X010514Y013602D01*
X007820Y013765D02*
X007820Y012427D01*
X007820Y013765D02*
X008764Y013765D01*
X008764Y012427D01*
X007820Y012427D01*
X007820Y012662D02*
X008764Y012662D01*
X008764Y012897D02*
X007820Y012897D01*
X007820Y013132D02*
X008764Y013132D01*
X008764Y013367D02*
X007820Y013367D01*
X007820Y013602D02*
X008764Y013602D01*
X006070Y013765D02*
X006070Y012427D01*
X006070Y013765D02*
X007014Y013765D01*
X007014Y012427D01*
X006070Y012427D01*
X006070Y012662D02*
X007014Y012662D01*
X007014Y012897D02*
X006070Y012897D01*
X006070Y013132D02*
X007014Y013132D01*
X007014Y013367D02*
X006070Y013367D01*
X006070Y013602D02*
X007014Y013602D01*
X004320Y013765D02*
X004320Y012427D01*
X004320Y013765D02*
X005264Y013765D01*
X005264Y012427D01*
X004320Y012427D01*
X004320Y012662D02*
X005264Y012662D01*
X005264Y012897D02*
X004320Y012897D01*
X004320Y013132D02*
X005264Y013132D01*
X005264Y013367D02*
X004320Y013367D01*
X004320Y013602D02*
X005264Y013602D01*
D13*
X005264Y011596D03*
X006069Y011596D03*
X007014Y011596D03*
X007819Y011596D03*
X008764Y011596D03*
X009569Y011596D03*
X010514Y011596D03*
X011319Y011596D03*
X012264Y011596D03*
X013069Y011596D03*
X014014Y011596D03*
X014819Y011596D03*
X015764Y011596D03*
X016569Y011596D03*
X017514Y011596D03*
X018319Y011596D03*
X019264Y011596D03*
X020069Y011596D03*
X021014Y011596D03*
X021819Y011596D03*
X022764Y011596D03*
X023569Y011596D03*
X024514Y011596D03*
X025319Y011596D03*
X026264Y011596D03*
X027069Y011596D03*
X028014Y011596D03*
X028819Y011596D03*
X029764Y011596D03*
X030569Y011596D03*
X031514Y011596D03*
X033819Y010846D03*
X034764Y010846D03*
X040319Y010846D03*
X041264Y010846D03*
X041264Y010096D03*
X040319Y010096D03*
X040319Y009346D03*
X041264Y009346D03*
X041264Y008596D03*
X040319Y008596D03*
X040319Y007846D03*
X041264Y007846D03*
X041264Y007096D03*
X040319Y007096D03*
X038327Y006846D03*
X037382Y006846D03*
X036764Y006846D03*
X035819Y006846D03*
X043569Y006846D03*
X044514Y006846D03*
X044257Y013346D03*
X045202Y013346D03*
X045757Y013346D03*
X046702Y013346D03*
X004889Y009846D03*
X003944Y009846D03*
X003944Y008846D03*
X004889Y008846D03*
X004889Y007846D03*
X003944Y007846D03*
X004319Y011596D03*
D14*
X036439Y011036D03*
X036754Y011036D03*
X037069Y011036D03*
X037384Y011036D03*
X037699Y011036D03*
X038014Y011036D03*
X038329Y011036D03*
X038644Y011036D03*
X038644Y007656D03*
X038329Y007656D03*
X038014Y007656D03*
X037699Y007656D03*
X037384Y007656D03*
X037069Y007656D03*
X036754Y007656D03*
X036439Y007656D03*
D15*
X035852Y008243D03*
X035852Y008558D03*
X035852Y008873D03*
X035852Y009188D03*
X035852Y009503D03*
X035852Y009818D03*
X035852Y010133D03*
X035852Y010448D03*
X039232Y010448D03*
X039232Y010133D03*
X039232Y009818D03*
X039232Y009503D03*
X039232Y009188D03*
X039232Y008873D03*
X039232Y008558D03*
X039232Y008243D03*
D16*
X042832Y008096D03*
X042832Y007596D03*
X042832Y008596D03*
X042832Y009096D03*
X042832Y009596D03*
X042832Y010096D03*
X042832Y010596D03*
X042832Y011096D03*
X045252Y011096D03*
X045252Y010596D03*
X045252Y010096D03*
X045252Y009596D03*
X045252Y009096D03*
X045252Y008596D03*
X045252Y008096D03*
X045252Y007596D03*
D17*
X046292Y007373D03*
X046292Y008318D03*
X046292Y008873D03*
X046292Y009818D03*
X046292Y010373D03*
X046292Y011318D03*
X040292Y012373D03*
X039292Y012373D03*
X039292Y013318D03*
X040292Y013318D03*
X032292Y013318D03*
X032292Y012373D03*
X032042Y009068D03*
X031042Y009068D03*
X031042Y008123D03*
X032042Y008123D03*
X024042Y007873D03*
X024042Y008818D03*
X017042Y008818D03*
X017042Y007873D03*
X010042Y007873D03*
X010042Y008818D03*
D18*
X033892Y012846D03*
X037692Y012846D03*
D19*
X041101Y012338D03*
X043857Y012338D03*
D20*
X043365Y013322D03*
X041593Y013322D03*
D21*
X034042Y007346D03*
D22*
X033042Y007346D03*
X033042Y008346D03*
X034042Y008346D03*
X034042Y009346D03*
X033042Y009346D03*
D23*
X044827Y012096D03*
X044827Y012596D03*
X046756Y012596D03*
X046756Y012096D03*
D24*
X047492Y011596D02*
X048092Y011596D01*
X048092Y012596D02*
X047492Y012596D01*
X047492Y013596D02*
X048092Y013596D01*
X048092Y010596D02*
X047492Y010596D01*
X047492Y009596D02*
X048092Y009596D01*
X048092Y008596D02*
X047492Y008596D01*
X047492Y007596D02*
X048092Y007596D01*
X048092Y006596D02*
X047492Y006596D01*
D25*
X049042Y008784D03*
X049042Y009532D03*
D26*
X049042Y010407D03*
X049042Y011785D03*
X049042Y007910D03*
X049042Y006532D03*
D27*
X048542Y007096D02*
X047042Y007096D01*
X046292Y007373D02*
X046069Y007596D01*
X045252Y007596D01*
X045252Y008096D02*
X044667Y008096D01*
X044514Y007943D01*
X044514Y006846D01*
X043569Y006846D02*
X043569Y007318D01*
X043292Y007596D01*
X042832Y007596D01*
X041292Y007721D02*
X041292Y007846D01*
X041264Y007846D01*
X041292Y007721D02*
X040792Y007721D01*
X040792Y007221D01*
X040417Y007221D01*
X040319Y007123D01*
X040319Y007096D01*
X040319Y007846D02*
X040319Y008596D01*
X040229Y008686D01*
X040229Y008721D01*
X039979Y008721D01*
X039792Y008908D01*
X039792Y009346D01*
X039634Y009503D01*
X039232Y009503D01*
X038572Y009503D01*
X038542Y009533D01*
X037884Y009878D02*
X037542Y010346D01*
X037384Y010503D01*
X037384Y011036D01*
X037069Y011036D02*
X037069Y010661D01*
X036754Y010346D01*
X036792Y008346D01*
X035852Y008243D02*
X034939Y008243D01*
X034042Y007346D01*
X034167Y006658D02*
X035164Y007656D01*
X036439Y007656D01*
X036754Y007656D02*
X036754Y010346D01*
X036754Y011036D02*
X036754Y012808D01*
X036792Y012846D01*
X037692Y012846D01*
X038292Y012846D01*
X038764Y012373D01*
X039292Y012373D01*
X039792Y012721D02*
X039792Y011783D01*
X039542Y011533D01*
X038417Y011533D01*
X038329Y011446D01*
X038329Y011036D01*
X038014Y011036D02*
X038014Y011786D01*
X037699Y011438D02*
X037542Y011596D01*
X037292Y011596D01*
X037229Y011596D01*
X037069Y011436D01*
X037069Y011036D01*
X036439Y011036D02*
X036439Y012198D01*
X035792Y012846D01*
X033892Y012846D01*
X033292Y012846D01*
X032819Y013318D01*
X032292Y013318D01*
X031042Y013096D02*
X030569Y013096D01*
X030569Y011596D01*
X029764Y011596D02*
X029667Y011596D01*
X029667Y010056D01*
X030167Y010056D02*
X030167Y010846D01*
X029167Y010846D02*
X029167Y010056D01*
X028667Y010056D02*
X028667Y010783D01*
X028014Y011436D01*
X028014Y011596D01*
X028819Y011596D02*
X028819Y013096D01*
X029292Y013096D01*
X027542Y013096D02*
X027069Y013096D01*
X027069Y011596D01*
X026792Y010908D02*
X026264Y011436D01*
X026264Y011596D01*
X025319Y011596D02*
X025319Y013096D01*
X025792Y013096D01*
X024042Y013096D02*
X023569Y013096D01*
X023569Y011596D01*
X022764Y011596D02*
X022667Y011596D01*
X022667Y010056D01*
X023167Y010056D02*
X023167Y010846D01*
X022167Y010846D02*
X022167Y010056D01*
X021667Y010056D02*
X021667Y010783D01*
X021014Y011436D01*
X021014Y011596D01*
X021819Y011596D02*
X021819Y013096D01*
X022292Y013096D01*
X020542Y013096D02*
X020069Y013096D01*
X020069Y011596D01*
X019792Y010908D02*
X019264Y011436D01*
X019264Y011596D01*
X018319Y011596D02*
X018319Y013096D01*
X018792Y013096D01*
X017042Y013096D02*
X016569Y013096D01*
X016569Y011596D01*
X015764Y011596D02*
X015667Y011596D01*
X015667Y010056D01*
X016167Y010056D02*
X016167Y010846D01*
X015167Y010846D02*
X015167Y010056D01*
X014667Y010056D02*
X014667Y010783D01*
X014014Y011436D01*
X014014Y011596D01*
X014819Y011596D02*
X014819Y013096D01*
X015292Y013096D01*
X013542Y013096D02*
X013069Y013096D01*
X013069Y011596D01*
X012792Y010908D02*
X012292Y011408D01*
X012292Y011568D01*
X012264Y011596D01*
X011319Y011596D02*
X011319Y013096D01*
X011792Y013096D01*
X010042Y013096D02*
X009569Y012623D01*
X009569Y011596D01*
X008764Y011596D02*
X008667Y011498D01*
X008667Y010056D01*
X009167Y010056D02*
X009167Y010846D01*
X008167Y010846D02*
X008167Y010056D01*
X007667Y010056D02*
X007667Y010783D01*
X007014Y011436D01*
X007014Y011596D01*
X006069Y011596D02*
X006069Y013096D01*
X006542Y013096D01*
X007819Y012623D02*
X008292Y013096D01*
X007819Y012623D02*
X007819Y011596D01*
X006667Y010596D02*
X006354Y010908D01*
X005792Y010908D01*
X005264Y011436D01*
X005264Y011596D01*
X005229Y010908D02*
X005229Y010471D01*
X005354Y010346D01*
X005354Y010033D01*
X005667Y010033D01*
X005667Y010056D01*
X005667Y010471D01*
X005229Y010908D01*
X006667Y010596D02*
X006667Y010056D01*
X007167Y010056D02*
X007167Y009346D01*
X006167Y009346D02*
X006167Y010056D01*
X005667Y010033D02*
X005667Y009033D01*
X005792Y008908D01*
X007104Y008908D01*
X007167Y008846D01*
X007167Y008846D01*
X007667Y008346D01*
X007667Y007636D01*
X008167Y007636D02*
X008167Y007158D01*
X008354Y006971D01*
X009729Y006971D01*
X009854Y007096D01*
X010104Y006658D02*
X007667Y006658D01*
X007167Y007158D01*
X007167Y007636D01*
X007167Y008221D01*
X006792Y008596D01*
X005604Y008596D01*
X005354Y008846D01*
X005354Y009381D01*
X004889Y009846D01*
X004889Y008846D02*
X005452Y008283D01*
X006542Y008283D01*
X006667Y008158D01*
X006667Y007636D01*
X006667Y007158D01*
X007479Y006346D01*
X010292Y006346D01*
X012229Y008283D01*
X013542Y008283D01*
X013667Y008158D01*
X013667Y007636D01*
X013667Y007158D01*
X014479Y006346D01*
X017292Y006346D01*
X019229Y008283D01*
X020542Y008283D01*
X020667Y008158D01*
X020667Y007636D01*
X020667Y007158D01*
X021479Y006346D01*
X024292Y006346D01*
X026229Y008283D01*
X027542Y008283D01*
X027667Y008158D01*
X027667Y007636D01*
X027667Y007096D01*
X028104Y006658D01*
X033542Y006658D01*
X033542Y007846D01*
X034042Y008346D01*
X033542Y008846D02*
X033042Y008346D01*
X032979Y008408D01*
X032792Y008596D01*
X031729Y008596D01*
X031542Y008408D01*
X031542Y007283D01*
X031229Y006971D01*
X029292Y006971D01*
X029167Y007096D01*
X029167Y007636D01*
X029667Y007636D02*
X029667Y008596D01*
X031514Y010443D01*
X031514Y011596D01*
X034764Y010846D02*
X035292Y010846D01*
X034292Y009971D02*
X035389Y008873D01*
X035852Y008873D01*
X035852Y008558D02*
X034954Y008558D01*
X034667Y008846D01*
X033542Y008846D01*
X031667Y009971D02*
X031417Y009721D01*
X031667Y009971D02*
X034292Y009971D01*
X037699Y011036D02*
X037699Y011438D01*
X038014Y011036D02*
X038014Y010131D01*
X039232Y010133D02*
X040282Y010133D01*
X040292Y010132D01*
X040301Y010128D01*
X040308Y010122D01*
X040314Y010114D01*
X040318Y010106D01*
X040319Y010096D01*
X039819Y009818D02*
X040292Y009346D01*
X040319Y009346D01*
X039819Y009818D02*
X039232Y009818D01*
X041264Y010096D02*
X041354Y010186D01*
X041354Y010221D01*
X041729Y010221D01*
X041792Y010283D01*
X041792Y011033D01*
X042167Y011408D01*
X042229Y011471D01*
X043417Y011471D01*
X043542Y011346D01*
X043542Y010721D01*
X043417Y010596D01*
X042832Y010596D01*
X042417Y011096D02*
X042167Y010846D01*
X042167Y010158D01*
X041354Y009346D01*
X041264Y009346D01*
X041854Y009346D02*
X041854Y008908D01*
X041667Y008721D01*
X041389Y008721D01*
X041264Y008596D01*
X042832Y009096D02*
X043542Y009096D01*
X042832Y009596D02*
X042104Y009596D01*
X041854Y009346D01*
X041264Y010846D02*
X041264Y011318D01*
X043268Y013322D01*
X043365Y013322D01*
X044257Y013346D02*
X044417Y013283D01*
X044417Y013006D01*
X044452Y012971D01*
X044827Y012596D01*
X045792Y012436D02*
X045792Y011846D01*
X046756Y012096D02*
X047042Y012096D01*
X047542Y012596D01*
X047792Y012596D01*
X047667Y013533D02*
X046792Y012658D01*
X046792Y012631D01*
X046756Y012596D01*
X046702Y013346D02*
X045792Y012436D01*
X047792Y011596D02*
X048042Y011596D01*
X046854Y010658D02*
X046667Y010846D01*
X045979Y010846D01*
X045729Y010596D01*
X045252Y010596D01*
X045252Y011096D02*
X044542Y011096D01*
X046202Y010283D02*
X046292Y010373D01*
X046202Y010283D02*
X045917Y010283D01*
X045854Y010221D01*
X045854Y010221D01*
X045729Y010096D01*
X045252Y010096D01*
X045252Y009596D02*
X045792Y009596D01*
X045917Y009721D01*
X046194Y009721D01*
X046292Y009818D01*
X046854Y010283D02*
X047542Y009596D01*
X047792Y009596D01*
X046854Y010283D02*
X046854Y010658D01*
X046194Y008971D02*
X045917Y008971D01*
X045792Y009096D01*
X045252Y009096D01*
X045252Y008596D02*
X045729Y008596D01*
X045917Y008408D01*
X046202Y008408D01*
X046292Y008318D01*
X047104Y008096D02*
X049042Y008096D01*
X046292Y008873D02*
X046194Y008971D01*
X042832Y011096D02*
X042417Y011096D01*
X042167Y011408D02*
X042167Y011408D01*
X040292Y011033D02*
X040319Y010881D01*
X040319Y010846D01*
X040229Y010971D02*
X040292Y011033D01*
X040167Y011158D01*
X038667Y011158D01*
X038644Y011198D01*
X038644Y011036D01*
X040167Y011158D02*
X040167Y012373D01*
X040292Y012373D01*
X039917Y012846D02*
X040667Y012846D01*
X040917Y013096D01*
X040917Y013596D01*
X041167Y013846D01*
X044792Y013846D01*
X045292Y013346D01*
X045202Y013346D01*
X045577Y013346D01*
X045667Y013436D01*
X045757Y013346D01*
X047667Y013533D02*
X047792Y013596D01*
X039917Y012846D02*
X039792Y012721D01*
X037699Y008906D02*
X037699Y007751D01*
X037699Y007656D02*
X037699Y007251D01*
X037979Y006971D01*
X038229Y006971D01*
X038229Y006943D01*
X038327Y006846D01*
X037384Y006848D02*
X037384Y007656D01*
X036754Y007656D02*
X036754Y006856D01*
X036764Y006846D01*
X037382Y006846D02*
X037384Y006848D01*
X034167Y006658D02*
X033542Y006658D01*
X028667Y007636D02*
X028667Y008471D01*
X028229Y008908D01*
X026854Y008908D01*
X026667Y009096D01*
X026667Y010056D01*
X027167Y010056D02*
X027167Y009346D01*
X028167Y009346D02*
X028167Y010056D01*
X027667Y010056D02*
X027667Y010596D01*
X027354Y010908D01*
X026792Y010908D01*
X024514Y010443D02*
X022667Y008596D01*
X022667Y007636D01*
X022167Y007636D02*
X022167Y007158D01*
X022354Y006971D01*
X023729Y006971D01*
X023854Y007096D01*
X024104Y006658D02*
X026042Y008596D01*
X027917Y008596D01*
X028167Y008346D01*
X028167Y007636D01*
X026667Y007636D02*
X026667Y007846D01*
X026292Y007846D01*
X025729Y007283D01*
X025729Y007096D01*
X024104Y006658D02*
X021667Y006658D01*
X021167Y007158D01*
X021167Y007636D01*
X021167Y008158D01*
X020729Y008596D01*
X020604Y008596D01*
X019042Y008596D01*
X017104Y006658D01*
X014667Y006658D01*
X014167Y007158D01*
X014167Y007636D01*
X014167Y008158D01*
X013729Y008596D01*
X012042Y008596D01*
X010104Y006658D01*
X011729Y007096D02*
X011729Y007283D01*
X012292Y007846D01*
X012667Y007846D01*
X012667Y007636D01*
X014042Y008908D02*
X014667Y008283D01*
X014667Y007636D01*
X015167Y007636D02*
X015167Y007158D01*
X015354Y006971D01*
X016729Y006971D01*
X016854Y007096D01*
X015667Y007636D02*
X015667Y008596D01*
X017514Y010443D01*
X017514Y011596D01*
X019792Y010908D02*
X020354Y010908D01*
X020667Y010596D01*
X020667Y010056D01*
X021167Y010056D02*
X021167Y009346D01*
X020167Y009346D02*
X020167Y010056D01*
X019667Y010056D02*
X019667Y009096D01*
X019854Y008908D01*
X021042Y008908D01*
X021667Y008283D01*
X021667Y007636D01*
X019667Y007636D02*
X019667Y007846D01*
X019292Y007846D01*
X018729Y007283D01*
X018729Y007096D01*
X014042Y008908D02*
X012854Y008908D01*
X012667Y009096D01*
X012667Y010056D01*
X013167Y010056D02*
X013167Y009346D01*
X014167Y009346D02*
X014167Y010056D01*
X013667Y010056D02*
X013667Y010596D01*
X013354Y010908D01*
X012792Y010908D01*
X010514Y010443D02*
X010514Y011596D01*
X010514Y010443D02*
X008667Y008596D01*
X008667Y007636D01*
X005667Y007636D02*
X005667Y007846D01*
X004889Y007846D01*
X024514Y010443D02*
X024514Y011596D01*
D28*
X023167Y010846D03*
X022167Y010846D03*
X021167Y009346D03*
X020167Y009346D03*
X016167Y010846D03*
X015167Y010846D03*
X014167Y009346D03*
X013167Y009346D03*
X009167Y010846D03*
X008167Y010846D03*
X007167Y009346D03*
X006167Y009346D03*
X009854Y007096D03*
X011729Y007096D03*
X016854Y007096D03*
X018729Y007096D03*
X023854Y007096D03*
X025729Y007096D03*
X028167Y008346D03*
X028167Y009346D03*
X027167Y009346D03*
X029167Y010846D03*
X030167Y010846D03*
X031417Y009721D03*
X043542Y009096D03*
X044542Y011096D03*
D29*
X048042Y011596D02*
X048854Y010783D01*
X048854Y010407D01*
X049042Y010407D01*
X049042Y009532D01*
X049042Y008784D02*
X049042Y008096D01*
X049042Y007910D01*
X048853Y006596D02*
X047792Y006596D01*
X047790Y006596D02*
X046542Y006596D01*
X048853Y006596D02*
X049042Y006532D01*
X033042Y007346D02*
X032819Y007346D01*
X032042Y008123D01*
D30*
X031042Y008123D02*
X031042Y007471D01*
X030167Y007636D02*
X030167Y007971D01*
X030292Y008096D01*
X031014Y008096D01*
X031042Y008123D01*
X031042Y009068D02*
X031042Y009068D01*
X031518Y009068D01*
X031518Y008984D01*
X031566Y009004D01*
X031566Y009068D01*
X032041Y009068D01*
X032041Y009068D01*
X031566Y009068D01*
X031566Y009178D01*
X031528Y009163D01*
X031518Y009163D01*
X031518Y009068D01*
X031042Y009068D01*
X031927Y009495D02*
X031942Y009531D01*
X032522Y009531D01*
X032522Y009346D01*
X033041Y009346D01*
X033041Y009345D01*
X032522Y009345D01*
X032522Y009130D01*
X032616Y009036D01*
X032518Y009036D01*
X032518Y009068D01*
X032042Y009068D01*
X032042Y009068D01*
X032518Y009068D01*
X032518Y009304D01*
X032503Y009360D01*
X032474Y009410D01*
X032433Y009451D01*
X032383Y009480D01*
X032327Y009495D01*
X032042Y009495D01*
X032042Y009069D01*
X032042Y009069D01*
X032042Y009495D01*
X031927Y009495D01*
X032042Y009424D02*
X032042Y009424D01*
X032042Y009185D02*
X032042Y009185D01*
X032518Y009185D02*
X032522Y009185D01*
X032522Y009424D02*
X032460Y009424D01*
X031954Y010411D02*
X031954Y010531D01*
X031954Y011064D01*
X032026Y011136D01*
X032081Y011268D01*
X032081Y011923D01*
X032071Y011947D01*
X032292Y011947D01*
X032577Y011947D01*
X032633Y011962D01*
X032683Y011990D01*
X032724Y012031D01*
X032753Y012082D01*
X032760Y012110D01*
X032770Y012106D01*
X035013Y012106D01*
X035146Y012160D01*
X035247Y012262D01*
X035302Y012394D01*
X035302Y012406D01*
X035610Y012406D01*
X035999Y012016D01*
X035999Y011430D01*
X035969Y011357D01*
X035969Y010918D01*
X035850Y010918D01*
X035850Y011077D01*
X035523Y011404D01*
X035178Y011404D01*
X035175Y011407D01*
X035043Y011462D01*
X034486Y011462D01*
X034354Y011407D01*
X034252Y011305D01*
X034215Y011215D01*
X034202Y011237D01*
X034161Y011278D01*
X034111Y011307D01*
X034055Y011322D01*
X033820Y011322D01*
X033820Y010846D01*
X033819Y010846D01*
X033819Y011322D01*
X033584Y011322D01*
X033528Y011307D01*
X033478Y011278D01*
X033437Y011237D01*
X033408Y011186D01*
X033393Y011131D01*
X033393Y010846D01*
X033819Y010846D01*
X033819Y010845D01*
X033393Y010845D01*
X033393Y010561D01*
X033408Y010505D01*
X033437Y010455D01*
X033478Y010414D01*
X033483Y010411D01*
X031954Y010411D01*
X031954Y010617D02*
X033393Y010617D01*
X033393Y010855D02*
X031954Y010855D01*
X031984Y011094D02*
X033393Y011094D01*
X033819Y011094D02*
X033820Y011094D01*
X033819Y010855D02*
X033820Y010855D01*
X034279Y011332D02*
X032081Y011332D01*
X032081Y011571D02*
X035999Y011571D01*
X035999Y011809D02*
X032081Y011809D01*
X032292Y011947D02*
X032292Y012373D01*
X032292Y011947D01*
X032292Y012048D02*
X032292Y012048D01*
X032292Y012286D02*
X032292Y012286D01*
X032292Y012373D02*
X032292Y012373D01*
X032733Y012048D02*
X035967Y012048D01*
X035729Y012286D02*
X035257Y012286D01*
X035595Y011332D02*
X035969Y011332D01*
X035969Y011094D02*
X035833Y011094D01*
X037198Y010167D02*
X037319Y010288D01*
X037442Y010411D01*
X037458Y010450D01*
X037518Y010426D01*
X037881Y010426D01*
X038013Y010480D01*
X038014Y010482D01*
X038015Y010480D01*
X038148Y010426D01*
X038511Y010426D01*
X038622Y010426D01*
X038622Y010266D01*
X038622Y010091D01*
X038311Y010091D01*
X037984Y009764D01*
X037984Y009302D01*
X038311Y008975D01*
X038622Y008975D01*
X038622Y008692D01*
X038622Y008377D01*
X038622Y008266D01*
X038463Y008266D01*
X038148Y008266D01*
X037833Y008266D01*
X037700Y008211D01*
X037699Y008210D01*
X037698Y008211D01*
X037566Y008266D01*
X037350Y008266D01*
X037350Y008577D01*
X037225Y008701D01*
X037198Y010167D01*
X037198Y010139D02*
X038622Y010139D01*
X038622Y010378D02*
X037409Y010378D01*
X037203Y009901D02*
X038120Y009901D01*
X037984Y009662D02*
X037207Y009662D01*
X037212Y009424D02*
X037984Y009424D01*
X038100Y009185D02*
X037216Y009185D01*
X037221Y008947D02*
X038622Y008947D01*
X038622Y008708D02*
X037225Y008708D01*
X037350Y008470D02*
X038622Y008470D01*
X037749Y008231D02*
X037649Y008231D01*
X039114Y007773D02*
X039553Y007773D01*
X039686Y007828D01*
X039753Y007895D01*
X039753Y007518D01*
X039772Y007471D01*
X039753Y007423D01*
X039753Y006768D01*
X039767Y006735D01*
X039734Y006702D01*
X039734Y006366D01*
X037873Y006366D01*
X037894Y006386D01*
X037931Y006477D01*
X037944Y006455D01*
X037985Y006414D01*
X038035Y006385D01*
X038091Y006370D01*
X038326Y006370D01*
X038326Y006845D01*
X038327Y006845D01*
X038327Y006370D01*
X038562Y006370D01*
X038618Y006385D01*
X038668Y006414D01*
X038709Y006455D01*
X038738Y006505D01*
X038753Y006561D01*
X038753Y006845D01*
X038327Y006845D01*
X038327Y006846D01*
X038753Y006846D01*
X038753Y007046D01*
X038826Y007046D01*
X038958Y007100D01*
X039059Y007202D01*
X039114Y007334D01*
X039114Y007773D01*
X039114Y007754D02*
X039753Y007754D01*
X039754Y007515D02*
X039114Y007515D01*
X039090Y007277D02*
X039753Y007277D01*
X039753Y007038D02*
X038753Y007038D01*
X038753Y006800D02*
X039753Y006800D01*
X039734Y006561D02*
X038753Y006561D01*
X038327Y006561D02*
X038326Y006561D01*
X038326Y006800D02*
X038327Y006800D01*
X040292Y006471D02*
X040319Y006471D01*
X040319Y006693D01*
X040542Y006471D01*
X042292Y006471D01*
X042542Y006721D01*
X042542Y007471D01*
X042667Y007596D01*
X042832Y007596D01*
X042292Y008096D02*
X042042Y007846D01*
X042042Y007346D01*
X041792Y007096D01*
X041264Y007096D01*
X041265Y007096D02*
X041691Y007096D01*
X041691Y007301D01*
X041776Y007386D01*
X041831Y007518D01*
X041831Y008173D01*
X041811Y008221D01*
X041831Y008268D01*
X041831Y008312D01*
X041916Y008348D01*
X042040Y008471D01*
X042040Y008471D01*
X042072Y008503D01*
X042072Y008394D01*
X042127Y008262D01*
X042212Y008177D01*
X042212Y008096D01*
X042831Y008096D01*
X042831Y008095D01*
X042212Y008095D01*
X042212Y008015D01*
X042127Y007930D01*
X042072Y007797D01*
X042072Y007590D01*
X042062Y007566D01*
X042062Y007375D01*
X042062Y006951D01*
X041691Y006951D01*
X041691Y007095D01*
X041265Y007095D01*
X041265Y007096D01*
X041691Y007038D02*
X042062Y007038D01*
X042062Y007277D02*
X041691Y007277D01*
X041830Y007515D02*
X042062Y007515D01*
X042072Y007754D02*
X041831Y007754D01*
X041831Y007993D02*
X042190Y007993D01*
X042292Y008096D02*
X042832Y008096D01*
X043452Y008096D01*
X043452Y008177D01*
X043537Y008262D01*
X043592Y008394D01*
X043592Y008538D01*
X043653Y008538D01*
X043858Y008623D01*
X044015Y008780D01*
X044100Y008985D01*
X044100Y009207D01*
X044015Y009412D01*
X043858Y009569D01*
X043653Y009654D01*
X043592Y009654D01*
X043592Y009797D01*
X043537Y009930D01*
X043452Y010015D01*
X043452Y010095D01*
X042832Y010095D01*
X042832Y010096D01*
X043452Y010096D01*
X043452Y010156D01*
X043504Y010156D01*
X043666Y010223D01*
X043790Y010346D01*
X043915Y010471D01*
X043982Y010633D01*
X043982Y010808D01*
X043982Y011433D01*
X043915Y011595D01*
X043791Y011719D01*
X043734Y011776D01*
X043812Y011763D01*
X043857Y011763D01*
X043857Y012337D01*
X043857Y012337D01*
X043857Y011763D01*
X043902Y011763D01*
X043992Y011778D01*
X044078Y011806D01*
X044158Y011847D01*
X044231Y011900D01*
X044295Y011964D01*
X044348Y012037D01*
X044389Y012117D01*
X044412Y012187D01*
X044450Y012149D01*
X044450Y012096D01*
X044556Y012096D01*
X044557Y012095D01*
X044450Y012095D01*
X044450Y011909D01*
X044465Y011853D01*
X044494Y011803D01*
X044535Y011762D01*
X044585Y011733D01*
X044641Y011718D01*
X044827Y011718D01*
X044827Y012078D01*
X044827Y012078D01*
X044827Y011718D01*
X045014Y011718D01*
X045070Y011733D01*
X045120Y011762D01*
X045161Y011803D01*
X045190Y011853D01*
X045205Y011909D01*
X045205Y012095D01*
X045098Y012095D01*
X045099Y012096D01*
X045205Y012096D01*
X045205Y012149D01*
X045290Y012234D01*
X045345Y012367D01*
X045345Y012730D01*
X045480Y012730D01*
X046035Y012730D01*
X046167Y012785D01*
X046261Y012878D01*
X046239Y012825D01*
X046239Y012367D01*
X046248Y012346D01*
X046239Y012325D01*
X046239Y011867D01*
X046289Y011745D01*
X046007Y011745D01*
X045951Y011730D01*
X045901Y011701D01*
X045860Y011660D01*
X045831Y011610D01*
X045816Y011554D01*
X045816Y011547D01*
X045723Y011586D01*
X044817Y011586D01*
X044653Y011654D01*
X044431Y011654D01*
X044226Y011569D01*
X044069Y011412D01*
X043984Y011207D01*
X043984Y010985D01*
X044069Y010780D01*
X044226Y010623D01*
X044431Y010538D01*
X044492Y010538D01*
X044492Y010394D01*
X044512Y010346D01*
X044492Y010297D01*
X044492Y009894D01*
X044512Y009846D01*
X044492Y009797D01*
X044492Y009394D01*
X044512Y009346D01*
X044492Y009297D01*
X044492Y008894D01*
X044512Y008846D01*
X044492Y008797D01*
X044492Y008499D01*
X044418Y008469D01*
X044294Y008345D01*
X044141Y008192D01*
X044074Y008031D01*
X044074Y007856D01*
X044074Y007377D01*
X044042Y007345D01*
X044009Y007377D01*
X044009Y007406D01*
X043942Y007567D01*
X043665Y007845D01*
X043541Y007969D01*
X043467Y007999D01*
X043452Y008015D01*
X043452Y008095D01*
X042832Y008095D01*
X042832Y008096D01*
X043542Y008096D01*
X044042Y008596D01*
X044042Y010096D01*
X042832Y010096D01*
X043452Y010139D02*
X044492Y010139D01*
X044498Y010378D02*
X043821Y010378D01*
X043975Y010617D02*
X044240Y010617D01*
X044037Y010855D02*
X043982Y010855D01*
X043982Y011094D02*
X043984Y011094D01*
X043982Y011332D02*
X044036Y011332D01*
X043925Y011571D02*
X044230Y011571D01*
X044085Y011809D02*
X044490Y011809D01*
X044450Y012048D02*
X044354Y012048D01*
X044452Y012096D02*
X044827Y012096D01*
X045514Y012096D01*
X046292Y011318D01*
X046292Y011318D01*
X046768Y011318D01*
X046768Y011280D01*
X046916Y011219D01*
X047104Y011031D01*
X047148Y010987D01*
X047153Y010992D01*
X047179Y011011D01*
X047118Y011036D01*
X046932Y011222D01*
X046832Y011464D01*
X046832Y011578D01*
X046761Y011578D01*
X046768Y011554D01*
X046768Y011318D01*
X046292Y011318D01*
X046768Y011332D02*
X046887Y011332D01*
X046832Y011571D02*
X046763Y011571D01*
X046263Y011809D02*
X045164Y011809D01*
X045205Y012048D02*
X046239Y012048D01*
X046239Y012286D02*
X045311Y012286D01*
X044827Y012048D02*
X044827Y012048D01*
X044827Y011809D02*
X044827Y011809D01*
X045759Y011571D02*
X045820Y011571D01*
X047041Y011094D02*
X047060Y011094D01*
X049054Y011319D02*
X049149Y011224D01*
X049295Y011078D01*
X049322Y011013D01*
X049448Y011013D01*
X049580Y010958D01*
X049682Y010857D01*
X049736Y010724D01*
X049736Y010089D01*
X049682Y009957D01*
X049613Y009888D01*
X049658Y009781D01*
X049658Y009283D01*
X049606Y009158D01*
X049658Y009033D01*
X049658Y008535D01*
X049613Y008428D01*
X049682Y008360D01*
X049736Y008227D01*
X049736Y007592D01*
X049682Y007460D01*
X049580Y007358D01*
X049448Y007304D01*
X049331Y007304D01*
X049261Y007136D01*
X049123Y006998D01*
X049405Y006998D01*
X049461Y006983D01*
X049511Y006954D01*
X049552Y006913D01*
X049581Y006863D01*
X049596Y006807D01*
X049596Y006535D01*
X049045Y006535D01*
X049045Y006529D01*
X049596Y006529D01*
X049596Y006366D01*
X049772Y006366D01*
X049772Y013826D01*
X048711Y013826D01*
X048752Y013727D01*
X048752Y013464D01*
X048651Y013222D01*
X048525Y013096D01*
X048651Y012969D01*
X048752Y012727D01*
X048752Y012464D01*
X048661Y012246D01*
X048678Y012251D01*
X049039Y012251D01*
X049039Y011788D01*
X049045Y011788D01*
X049045Y012251D01*
X049405Y012251D01*
X049461Y012236D01*
X049511Y012207D01*
X049552Y012166D01*
X049581Y012116D01*
X049596Y012060D01*
X049596Y011788D01*
X049045Y011788D01*
X049045Y011782D01*
X049596Y011782D01*
X049596Y011510D01*
X049581Y011454D01*
X049552Y011404D01*
X049511Y011363D01*
X049461Y011334D01*
X049405Y011319D01*
X049054Y011319D01*
X049456Y011332D02*
X049772Y011332D01*
X049772Y011571D02*
X049596Y011571D01*
X049596Y011809D02*
X049772Y011809D01*
X049772Y012048D02*
X049596Y012048D01*
X049772Y012286D02*
X048678Y012286D01*
X049039Y012048D02*
X049045Y012048D01*
X049039Y011809D02*
X049045Y011809D01*
X049279Y011094D02*
X049772Y011094D01*
X049772Y010855D02*
X049682Y010855D01*
X049736Y010617D02*
X049772Y010617D01*
X049772Y010378D02*
X049736Y010378D01*
X049736Y010139D02*
X049772Y010139D01*
X049772Y009901D02*
X049626Y009901D01*
X049658Y009662D02*
X049772Y009662D01*
X049772Y009424D02*
X049658Y009424D01*
X049617Y009185D02*
X049772Y009185D01*
X049772Y008947D02*
X049658Y008947D01*
X049658Y008708D02*
X049772Y008708D01*
X049772Y008470D02*
X049630Y008470D01*
X049735Y008231D02*
X049772Y008231D01*
X049772Y007993D02*
X049736Y007993D01*
X049736Y007754D02*
X049772Y007754D01*
X049042Y007910D02*
X048915Y007783D01*
X048854Y007783D01*
X048854Y007408D01*
X048542Y007096D01*
X049163Y007038D02*
X049772Y007038D01*
X049772Y006800D02*
X049596Y006800D01*
X049596Y006561D02*
X049772Y006561D01*
X049772Y007277D02*
X049319Y007277D01*
X049705Y007515D02*
X049772Y007515D01*
X047791Y006596D02*
X047331Y006596D01*
X047331Y006595D01*
X047791Y006595D01*
X047791Y006596D01*
X047025Y006366D02*
X045006Y006366D01*
X045026Y006386D01*
X045081Y006518D01*
X045081Y007106D01*
X045676Y007106D01*
X045676Y007095D01*
X045731Y006963D01*
X045832Y006861D01*
X045964Y006807D01*
X046542Y006807D01*
X046811Y006538D01*
X046975Y006538D01*
X046985Y006474D01*
X047010Y006396D01*
X047025Y006366D01*
X046787Y006561D02*
X045081Y006561D01*
X045081Y006800D02*
X046548Y006800D01*
X046917Y007221D02*
X047042Y007096D01*
X046917Y007221D02*
X046854Y007283D01*
X046854Y007846D01*
X047104Y008096D01*
X045699Y007038D02*
X045081Y007038D01*
X044074Y007515D02*
X043964Y007515D01*
X044074Y007754D02*
X043756Y007754D01*
X043665Y007845D02*
X043665Y007845D01*
X043483Y007993D02*
X044074Y007993D01*
X044180Y008231D02*
X043506Y008231D01*
X043592Y008470D02*
X044420Y008470D01*
X044492Y008708D02*
X043944Y008708D01*
X044084Y008947D02*
X044492Y008947D01*
X044492Y009185D02*
X044100Y009185D01*
X044003Y009424D02*
X044492Y009424D01*
X044492Y009662D02*
X043592Y009662D01*
X043549Y009901D02*
X044492Y009901D01*
X042072Y008470D02*
X042038Y008470D01*
X042157Y008231D02*
X041816Y008231D01*
X040319Y007123D02*
X040319Y006693D01*
X036273Y006366D02*
X034496Y006366D01*
X035347Y007216D01*
X035425Y007216D01*
X035408Y007186D01*
X035393Y007131D01*
X035393Y006846D01*
X035819Y006846D01*
X035819Y006845D01*
X035820Y006845D01*
X035820Y006370D01*
X036055Y006370D01*
X036111Y006385D01*
X036161Y006414D01*
X036202Y006455D01*
X036215Y006477D01*
X036252Y006386D01*
X036273Y006366D01*
X035819Y006370D02*
X035819Y006845D01*
X035393Y006845D01*
X035393Y006561D01*
X035408Y006505D01*
X035437Y006455D01*
X035478Y006414D01*
X035528Y006385D01*
X035584Y006370D01*
X035819Y006370D01*
X035819Y006561D02*
X035820Y006561D01*
X035819Y006800D02*
X035820Y006800D01*
X035393Y006800D02*
X034931Y006800D01*
X035169Y007038D02*
X035393Y007038D01*
X035393Y006561D02*
X034692Y006561D01*
X027167Y006846D02*
X027167Y007636D01*
X025782Y008958D02*
X025125Y008301D01*
X024898Y008529D01*
X024503Y008529D01*
X024518Y008582D01*
X024518Y008818D01*
X024042Y008818D01*
X024042Y008818D01*
X024518Y008818D01*
X024518Y009054D01*
X024503Y009110D01*
X024474Y009160D01*
X024433Y009201D01*
X024383Y009230D01*
X024327Y009245D01*
X024042Y009245D01*
X024042Y008819D01*
X024042Y008819D01*
X024042Y009245D01*
X023938Y009245D01*
X024887Y010194D01*
X024954Y010356D01*
X024954Y010531D01*
X024954Y011016D01*
X025041Y010980D01*
X025598Y010980D01*
X025730Y011035D01*
X025792Y011096D01*
X025854Y011035D01*
X025986Y010980D01*
X026098Y010980D01*
X026430Y010648D01*
X026402Y010632D01*
X026361Y010591D01*
X026332Y010541D01*
X026317Y010485D01*
X026317Y010056D01*
X026666Y010056D01*
X026666Y010055D01*
X026317Y010055D01*
X026317Y009627D01*
X026332Y009571D01*
X026361Y009521D01*
X026402Y009480D01*
X026452Y009451D01*
X026508Y009436D01*
X026609Y009436D01*
X026609Y009235D01*
X026691Y009036D01*
X026129Y009036D01*
X025977Y009036D01*
X025954Y009036D01*
X025793Y008969D01*
X025782Y008958D01*
X025771Y008947D02*
X024518Y008947D01*
X024448Y009185D02*
X026629Y009185D01*
X026609Y009424D02*
X024117Y009424D01*
X024042Y009185D02*
X024042Y009185D01*
X024042Y008947D02*
X024042Y008947D01*
X024041Y008818D02*
X023566Y008818D01*
X023566Y008582D01*
X023581Y008526D01*
X023610Y008476D01*
X023651Y008435D01*
X023673Y008423D01*
X023582Y008385D01*
X023550Y008353D01*
X023471Y008353D01*
X023368Y008396D01*
X023107Y008396D01*
X023107Y008413D01*
X023566Y008873D01*
X023566Y008818D01*
X024041Y008818D01*
X024041Y008818D01*
X023566Y008708D02*
X023402Y008708D01*
X023617Y008470D02*
X023163Y008470D01*
X022227Y008470D02*
X021478Y008470D01*
X021416Y008531D02*
X021416Y008531D01*
X021159Y008788D01*
X021278Y008788D01*
X021483Y008873D01*
X021640Y009030D01*
X021725Y009235D01*
X021725Y009296D01*
X021868Y009296D01*
X021917Y009316D01*
X021965Y009296D01*
X022368Y009296D01*
X022417Y009316D01*
X022465Y009296D01*
X022745Y009296D01*
X022418Y008969D01*
X022294Y008845D01*
X022227Y008683D01*
X022227Y008396D01*
X021965Y008396D01*
X021833Y008341D01*
X021748Y008256D01*
X021667Y008256D01*
X021667Y007636D01*
X021667Y007636D01*
X021667Y008256D01*
X021603Y008256D01*
X021583Y008303D01*
X021540Y008407D01*
X021416Y008531D01*
X021239Y008708D02*
X022237Y008708D01*
X022396Y008947D02*
X021557Y008947D01*
X021704Y009185D02*
X022634Y009185D01*
X024356Y009662D02*
X026317Y009662D01*
X026317Y009901D02*
X024594Y009901D01*
X024833Y010139D02*
X026317Y010139D01*
X026317Y010378D02*
X024954Y010378D01*
X024954Y010617D02*
X026387Y010617D01*
X026223Y010855D02*
X024954Y010855D01*
X025789Y011094D02*
X025795Y011094D01*
X025532Y008708D02*
X024518Y008708D01*
X024957Y008470D02*
X025294Y008470D01*
X024667Y007971D02*
X024569Y007873D01*
X024042Y007873D01*
X023167Y007873D01*
X023167Y007636D01*
X021667Y007754D02*
X021667Y007754D01*
X021667Y007993D02*
X021667Y007993D01*
X021667Y008231D02*
X021667Y008231D01*
X020167Y007636D02*
X020167Y006846D01*
X017667Y007971D02*
X017569Y007873D01*
X017042Y007873D01*
X016167Y007873D01*
X016167Y007636D01*
X014667Y007636D02*
X014667Y008256D01*
X014748Y008256D01*
X014833Y008341D01*
X014965Y008396D01*
X015227Y008396D01*
X015227Y008683D01*
X015294Y008845D01*
X015418Y008969D01*
X015745Y009296D01*
X015465Y009296D01*
X015417Y009316D01*
X015368Y009296D01*
X014965Y009296D01*
X014917Y009316D01*
X014868Y009296D01*
X014725Y009296D01*
X014725Y009235D01*
X014640Y009030D01*
X014483Y008873D01*
X014278Y008788D01*
X014160Y008788D01*
X014416Y008531D01*
X014416Y008531D01*
X014540Y008407D01*
X014603Y008256D01*
X014667Y008256D01*
X014667Y007636D01*
X014667Y007636D01*
X014667Y007754D02*
X014667Y007754D01*
X014667Y007993D02*
X014667Y007993D01*
X014667Y008231D02*
X014667Y008231D01*
X014478Y008470D02*
X015227Y008470D01*
X015237Y008708D02*
X014239Y008708D01*
X014557Y008947D02*
X015396Y008947D01*
X015634Y009185D02*
X014704Y009185D01*
X016107Y008413D02*
X016566Y008873D01*
X016566Y008818D01*
X016566Y008582D01*
X016581Y008526D01*
X016610Y008476D01*
X016651Y008435D01*
X016673Y008423D01*
X016582Y008385D01*
X016550Y008353D01*
X016471Y008353D01*
X016368Y008396D01*
X016107Y008396D01*
X016107Y008413D01*
X016163Y008470D02*
X016617Y008470D01*
X016566Y008708D02*
X016402Y008708D01*
X016566Y008818D02*
X017041Y008818D01*
X017041Y008818D01*
X016566Y008818D01*
X017042Y008819D02*
X017042Y009245D01*
X017042Y008819D01*
X017042Y008819D01*
X017042Y008818D02*
X017518Y008818D01*
X017042Y008818D01*
X017042Y008818D01*
X017042Y008947D02*
X017042Y008947D01*
X017042Y009185D02*
X017042Y009185D01*
X017042Y009245D02*
X016938Y009245D01*
X017887Y010194D01*
X017954Y010356D01*
X017954Y010531D01*
X017954Y011016D01*
X018041Y010980D01*
X018598Y010980D01*
X018730Y011035D01*
X018792Y011096D01*
X018854Y011035D01*
X018986Y010980D01*
X019098Y010980D01*
X019430Y010648D01*
X019402Y010632D01*
X019361Y010591D01*
X019332Y010541D01*
X019317Y010485D01*
X019317Y010056D01*
X019666Y010056D01*
X019666Y010055D01*
X019317Y010055D01*
X019317Y009627D01*
X019332Y009571D01*
X019361Y009521D01*
X019402Y009480D01*
X019452Y009451D01*
X019508Y009436D01*
X019609Y009436D01*
X019609Y009235D01*
X019691Y009036D01*
X018954Y009036D01*
X018793Y008969D01*
X018729Y008905D01*
X018125Y008301D01*
X017898Y008529D01*
X017503Y008529D01*
X017518Y008582D01*
X017518Y008818D01*
X017518Y009054D01*
X017503Y009110D01*
X017474Y009160D01*
X017433Y009201D01*
X017383Y009230D01*
X017327Y009245D01*
X017042Y009245D01*
X017117Y009424D02*
X019609Y009424D01*
X019629Y009185D02*
X017448Y009185D01*
X017518Y008947D02*
X018771Y008947D01*
X018532Y008708D02*
X017518Y008708D01*
X017957Y008470D02*
X018294Y008470D01*
X017356Y009662D02*
X019317Y009662D01*
X019317Y009901D02*
X017594Y009901D01*
X017833Y010139D02*
X019317Y010139D01*
X019317Y010378D02*
X017954Y010378D01*
X017954Y010617D02*
X019387Y010617D01*
X019223Y010855D02*
X017954Y010855D01*
X018789Y011094D02*
X018795Y011094D01*
X012666Y010056D02*
X012666Y010055D01*
X012317Y010055D01*
X012317Y009627D01*
X012332Y009571D01*
X012361Y009521D01*
X012402Y009480D01*
X012452Y009451D01*
X012508Y009436D01*
X012609Y009436D01*
X012609Y009235D01*
X012691Y009036D01*
X011954Y009036D01*
X011792Y008969D01*
X011729Y008905D01*
X011125Y008301D01*
X010898Y008529D01*
X010503Y008529D01*
X010518Y008582D01*
X010518Y008818D01*
X010042Y008818D01*
X010042Y008818D01*
X010518Y008818D01*
X010518Y009054D01*
X010503Y009110D01*
X010474Y009160D01*
X010433Y009201D01*
X010383Y009230D01*
X010327Y009245D01*
X010042Y009245D01*
X010042Y008819D01*
X010042Y008819D01*
X010042Y009245D01*
X009938Y009245D01*
X010763Y010070D01*
X010887Y010194D01*
X010954Y010356D01*
X010954Y011016D01*
X011041Y010980D01*
X011598Y010980D01*
X011730Y011035D01*
X011792Y011096D01*
X011854Y011035D01*
X011986Y010980D01*
X012098Y010980D01*
X012430Y010648D01*
X012402Y010632D01*
X012361Y010591D01*
X012332Y010541D01*
X012317Y010485D01*
X012317Y010056D01*
X012666Y010056D01*
X012317Y010139D02*
X010833Y010139D01*
X010954Y010378D02*
X012317Y010378D01*
X012387Y010617D02*
X010954Y010617D01*
X010954Y010855D02*
X012223Y010855D01*
X011795Y011094D02*
X011789Y011094D01*
X012317Y009901D02*
X010594Y009901D01*
X010356Y009662D02*
X012317Y009662D01*
X012609Y009424D02*
X010117Y009424D01*
X010042Y009185D02*
X010042Y009185D01*
X010042Y008947D02*
X010042Y008947D01*
X010041Y008818D02*
X009566Y008818D01*
X009566Y008582D01*
X009581Y008526D01*
X009610Y008476D01*
X009651Y008435D01*
X009673Y008423D01*
X009582Y008385D01*
X009550Y008353D01*
X009471Y008353D01*
X009368Y008396D01*
X009107Y008396D01*
X009107Y008413D01*
X009566Y008873D01*
X009566Y008818D01*
X010041Y008818D01*
X010041Y008818D01*
X009566Y008708D02*
X009402Y008708D01*
X009617Y008470D02*
X009163Y008470D01*
X008745Y009296D02*
X008294Y008845D01*
X008227Y008683D01*
X008227Y008508D01*
X008227Y008396D01*
X007965Y008396D01*
X007833Y008341D01*
X007748Y008256D01*
X007667Y008256D01*
X007667Y007636D01*
X007667Y007636D01*
X007667Y008256D01*
X007607Y008256D01*
X007607Y008308D01*
X007540Y008470D01*
X007222Y008788D01*
X007278Y008788D01*
X007483Y008873D01*
X007640Y009030D01*
X007725Y009235D01*
X007725Y009296D01*
X007868Y009296D01*
X007917Y009316D01*
X007965Y009296D01*
X008368Y009296D01*
X008417Y009316D01*
X008465Y009296D01*
X008745Y009296D01*
X008634Y009185D02*
X007704Y009185D01*
X007557Y008947D02*
X008396Y008947D01*
X008237Y008708D02*
X007301Y008708D01*
X007540Y008470D02*
X008227Y008470D01*
X007667Y008231D02*
X007667Y008231D01*
X007667Y007993D02*
X007667Y007993D01*
X007667Y007754D02*
X007667Y007754D01*
X009167Y007873D02*
X009167Y007636D01*
X009167Y007873D02*
X010042Y007873D01*
X010569Y007873D01*
X010667Y007971D01*
X010957Y008470D02*
X011294Y008470D01*
X011532Y008708D02*
X010518Y008708D01*
X010518Y008947D02*
X011771Y008947D01*
X012629Y009185D02*
X010448Y009185D01*
X013167Y007636D02*
X013167Y006846D01*
X006167Y006846D02*
X006167Y007636D01*
X005177Y007234D02*
X005177Y007164D01*
X005232Y007032D01*
X005333Y006930D01*
X005465Y006876D01*
X005609Y006876D01*
X005609Y006614D01*
X005858Y006366D01*
X003312Y006366D01*
X003312Y013826D01*
X003841Y013826D01*
X003841Y012723D01*
X003839Y012719D01*
X003839Y012528D01*
X003839Y012087D01*
X003807Y012055D01*
X003753Y011923D01*
X003753Y011268D01*
X003807Y011136D01*
X003909Y011035D01*
X004041Y010980D01*
X004598Y010980D01*
X004730Y011035D01*
X004792Y011096D01*
X004854Y011035D01*
X004986Y010980D01*
X005098Y010980D01*
X005419Y010659D01*
X005430Y010648D01*
X005402Y010632D01*
X005361Y010591D01*
X005332Y010541D01*
X005317Y010485D01*
X005317Y010390D01*
X005300Y010407D01*
X005168Y010462D01*
X004611Y010462D01*
X004479Y010407D01*
X004377Y010305D01*
X004340Y010215D01*
X004327Y010237D01*
X004286Y010278D01*
X004236Y010307D01*
X004180Y010322D01*
X003945Y010322D01*
X003945Y009846D01*
X003944Y009846D01*
X003944Y010322D01*
X003709Y010322D01*
X003653Y010307D01*
X003603Y010278D01*
X003562Y010237D01*
X003533Y010186D01*
X003518Y010131D01*
X003518Y009846D01*
X003944Y009846D01*
X003944Y009845D01*
X003945Y009845D01*
X003945Y009370D01*
X004180Y009370D01*
X004236Y009385D01*
X004286Y009414D01*
X004327Y009455D01*
X004340Y009477D01*
X004377Y009386D01*
X004418Y009346D01*
X004377Y009305D01*
X004340Y009215D01*
X004327Y009237D01*
X004286Y009278D01*
X004236Y009306D01*
X004180Y009321D01*
X003945Y009321D01*
X003945Y008846D01*
X003944Y008846D01*
X003944Y009321D01*
X003709Y009321D01*
X003653Y009306D01*
X003603Y009278D01*
X003562Y009237D01*
X003533Y009186D01*
X003518Y009131D01*
X003518Y008846D01*
X003944Y008846D01*
X003944Y008845D01*
X003945Y008845D01*
X003945Y008370D01*
X004180Y008370D01*
X004236Y008385D01*
X004286Y008414D01*
X004327Y008455D01*
X004340Y008477D01*
X004377Y008386D01*
X004418Y008346D01*
X004377Y008305D01*
X004340Y008215D01*
X004327Y008237D01*
X004286Y008278D01*
X004236Y008307D01*
X004180Y008322D01*
X003945Y008322D01*
X003945Y007846D01*
X003944Y007846D01*
X003944Y008322D01*
X003709Y008322D01*
X003653Y008307D01*
X003603Y008278D01*
X003562Y008237D01*
X003533Y008186D01*
X003518Y008131D01*
X003518Y007846D01*
X003944Y007846D01*
X003944Y007845D01*
X003945Y007845D01*
X003945Y007370D01*
X004180Y007370D01*
X004236Y007385D01*
X004286Y007414D01*
X004327Y007455D01*
X004340Y007477D01*
X004377Y007386D01*
X004479Y007285D01*
X004611Y007230D01*
X005168Y007230D01*
X005177Y007234D01*
X005229Y007038D02*
X003312Y007038D01*
X003312Y006800D02*
X005609Y006800D01*
X005662Y006561D02*
X003312Y006561D01*
X003312Y007277D02*
X004497Y007277D01*
X003944Y007370D02*
X003944Y007845D01*
X003518Y007845D01*
X003518Y007561D01*
X003533Y007505D01*
X003562Y007455D01*
X003603Y007414D01*
X003653Y007385D01*
X003709Y007370D01*
X003944Y007370D01*
X003944Y007515D02*
X003945Y007515D01*
X003530Y007515D02*
X003312Y007515D01*
X003312Y007754D02*
X003518Y007754D01*
X003518Y007993D02*
X003312Y007993D01*
X003312Y008231D02*
X003558Y008231D01*
X003653Y008385D02*
X003709Y008370D01*
X003944Y008370D01*
X003944Y008845D01*
X003518Y008845D01*
X003518Y008561D01*
X003533Y008505D01*
X003562Y008455D01*
X003603Y008414D01*
X003653Y008385D01*
X003553Y008470D02*
X003312Y008470D01*
X003312Y008708D02*
X003518Y008708D01*
X003944Y008708D02*
X003945Y008708D01*
X003944Y008470D02*
X003945Y008470D01*
X003944Y008231D02*
X003945Y008231D01*
X003944Y007993D02*
X003945Y007993D01*
X003944Y007754D02*
X003945Y007754D01*
X004330Y008231D02*
X004347Y008231D01*
X004336Y008470D02*
X004343Y008470D01*
X003944Y008947D02*
X003945Y008947D01*
X003944Y009185D02*
X003945Y009185D01*
X003944Y009370D02*
X003944Y009845D01*
X003518Y009845D01*
X003518Y009561D01*
X003533Y009505D01*
X003562Y009455D01*
X003603Y009414D01*
X003653Y009385D01*
X003709Y009370D01*
X003944Y009370D01*
X003944Y009424D02*
X003945Y009424D01*
X003944Y009662D02*
X003945Y009662D01*
X003944Y009901D02*
X003945Y009901D01*
X003518Y009901D02*
X003312Y009901D01*
X003312Y009662D02*
X003518Y009662D01*
X003592Y009424D02*
X003312Y009424D01*
X003312Y009185D02*
X003532Y009185D01*
X003518Y008947D02*
X003312Y008947D01*
X004296Y009424D02*
X004362Y009424D01*
X005667Y009691D02*
X005667Y010055D01*
X005667Y009690D01*
X005667Y009691D01*
X005667Y009901D02*
X005667Y009901D01*
X005667Y010055D02*
X005667Y010055D01*
X005667Y010056D02*
X005667Y010484D01*
X005667Y010484D01*
X005667Y010056D01*
X005667Y010056D01*
X005667Y010139D02*
X005667Y010139D01*
X005667Y010378D02*
X005667Y010378D01*
X005387Y010617D02*
X003312Y010617D01*
X003312Y010855D02*
X005223Y010855D01*
X005419Y010659D02*
X005419Y010659D01*
X004795Y011094D02*
X004789Y011094D01*
X003850Y011094D02*
X003312Y011094D01*
X003312Y011332D02*
X003753Y011332D01*
X003753Y011571D02*
X003312Y011571D01*
X003312Y011809D02*
X003753Y011809D01*
X003804Y012048D02*
X003312Y012048D01*
X003312Y012286D02*
X003839Y012286D01*
X003839Y012525D02*
X003312Y012525D01*
X003312Y012763D02*
X003841Y012763D01*
X003841Y013002D02*
X003312Y013002D01*
X003312Y013241D02*
X003841Y013241D01*
X003841Y013479D02*
X003312Y013479D01*
X003312Y013718D02*
X003841Y013718D01*
X004792Y013096D02*
X004319Y012623D01*
X004319Y011596D01*
X004450Y010378D02*
X003312Y010378D01*
X003312Y010139D02*
X003520Y010139D01*
X003944Y010139D02*
X003945Y010139D01*
X032756Y013826D02*
X040536Y013826D01*
X040502Y013745D01*
X040292Y013745D01*
X040292Y013319D01*
X040292Y013319D01*
X040292Y013745D01*
X040007Y013745D01*
X039951Y013730D01*
X039901Y013701D01*
X039860Y013660D01*
X039831Y013610D01*
X039816Y013554D01*
X039816Y013318D01*
X039816Y013280D01*
X039768Y013260D01*
X039768Y013318D01*
X039292Y013318D01*
X039292Y013318D01*
X039768Y013318D01*
X039768Y013554D01*
X039753Y013610D01*
X039724Y013660D01*
X039683Y013701D01*
X039633Y013730D01*
X039577Y013745D01*
X039292Y013745D01*
X039292Y013319D01*
X039292Y013319D01*
X039292Y013745D01*
X039007Y013745D01*
X038951Y013730D01*
X038901Y013701D01*
X038860Y013660D01*
X038831Y013610D01*
X038823Y013581D01*
X038813Y013586D01*
X036570Y013586D01*
X036438Y013531D01*
X036337Y013430D01*
X036282Y013297D01*
X036282Y012978D01*
X036165Y013095D01*
X036041Y013219D01*
X035879Y013286D01*
X035302Y013286D01*
X035302Y013297D01*
X035247Y013430D01*
X035146Y013531D01*
X035013Y013586D01*
X033174Y013586D01*
X033069Y013691D01*
X032907Y013758D01*
X032823Y013758D01*
X032756Y013826D01*
X033005Y013718D02*
X038930Y013718D01*
X039292Y013718D02*
X039292Y013718D01*
X039654Y013718D02*
X039930Y013718D01*
X040292Y013718D02*
X040292Y013718D01*
X040292Y013479D02*
X040292Y013479D01*
X040291Y013318D02*
X040291Y013318D01*
X039816Y013318D01*
X040291Y013318D01*
X039816Y013479D02*
X039768Y013479D01*
X039292Y013479D02*
X039292Y013479D01*
X041302Y012876D02*
X041308Y012891D01*
X041323Y012880D01*
X041395Y012843D01*
X041472Y012818D01*
X041553Y012805D01*
X041593Y012805D01*
X041593Y013322D01*
X041594Y013322D01*
X042110Y013322D01*
X042110Y013363D01*
X042103Y013406D01*
X042708Y013406D01*
X042708Y013384D01*
X041676Y012352D01*
X041676Y012383D01*
X041661Y012472D01*
X041634Y012558D01*
X041593Y012639D01*
X041539Y012712D01*
X041475Y012776D01*
X041402Y012829D01*
X041322Y012870D01*
X041302Y012876D01*
X041488Y012763D02*
X042087Y012763D01*
X041930Y012928D02*
X041988Y012985D01*
X042035Y013051D01*
X042072Y013124D01*
X042098Y013201D01*
X042110Y013281D01*
X042110Y013322D01*
X041594Y013322D01*
X041594Y013322D01*
X041594Y012805D01*
X041634Y012805D01*
X041714Y012818D01*
X041792Y012843D01*
X041864Y012880D01*
X041930Y012928D01*
X042000Y013002D02*
X042326Y013002D01*
X042104Y013241D02*
X042564Y013241D01*
X041594Y013241D02*
X041593Y013241D01*
X041593Y013002D02*
X041594Y013002D01*
X041644Y012525D02*
X041849Y012525D01*
X042855Y012286D02*
X043284Y012286D01*
X043283Y012293D02*
X043297Y012203D01*
X043325Y012117D01*
X043366Y012037D01*
X043419Y011964D01*
X043472Y011911D01*
X043329Y011911D01*
X042479Y011911D01*
X043234Y012665D01*
X043234Y012665D01*
X043385Y012665D01*
X043366Y012639D01*
X043325Y012558D01*
X043297Y012472D01*
X043283Y012383D01*
X043283Y012338D01*
X043857Y012338D01*
X043857Y012338D01*
X043283Y012338D01*
X043283Y012293D01*
X043360Y012048D02*
X042616Y012048D01*
X043857Y012048D02*
X043857Y012048D01*
X043857Y012286D02*
X043857Y012286D01*
X043857Y011809D02*
X043857Y011809D01*
X043314Y012525D02*
X043093Y012525D01*
X045345Y012525D02*
X046239Y012525D01*
X046239Y012763D02*
X046116Y012763D01*
X046701Y013346D02*
X046701Y013822D01*
X046466Y013822D01*
X046410Y013807D01*
X046360Y013778D01*
X046319Y013737D01*
X046306Y013715D01*
X046269Y013805D01*
X046248Y013826D01*
X046873Y013826D01*
X046871Y013822D01*
X046702Y013822D01*
X046702Y013346D01*
X046701Y013346D01*
X046701Y013479D02*
X046702Y013479D01*
X046701Y013718D02*
X046702Y013718D01*
X046308Y013718D02*
X046305Y013718D01*
X048659Y013241D02*
X049772Y013241D01*
X049772Y013479D02*
X048752Y013479D01*
X048752Y013718D02*
X049772Y013718D01*
X049772Y013002D02*
X048619Y013002D01*
X048737Y012763D02*
X049772Y012763D01*
X049772Y012525D02*
X048752Y012525D01*
X038580Y011973D02*
X038504Y011973D01*
X038329Y011973D01*
X038168Y011906D01*
X038080Y011819D01*
X038011Y011749D01*
X037915Y011845D01*
X037791Y011969D01*
X037649Y012027D01*
X037571Y012106D01*
X038410Y012106D01*
X038515Y012000D01*
X038580Y011973D01*
X038467Y012048D02*
X037629Y012048D01*
X037915Y011845D02*
X037915Y011845D01*
X037950Y011809D02*
X038071Y011809D01*
X036282Y013002D02*
X036258Y013002D01*
X036282Y013241D02*
X035988Y013241D01*
X036386Y013479D02*
X035197Y013479D01*
D31*
X038667Y013721D03*
X037292Y011596D03*
X035292Y010846D03*
X033292Y010846D03*
X037667Y010221D03*
X038542Y009533D03*
X037667Y008471D03*
X036792Y008346D03*
X039417Y007471D03*
X041917Y007096D03*
X040292Y006471D03*
X044042Y008346D03*
X044292Y009846D03*
X045792Y011846D03*
X049542Y011096D03*
X049542Y007221D03*
X047042Y007096D03*
X045292Y007033D03*
X035229Y007033D03*
X031042Y007471D03*
X027167Y006846D03*
X024667Y007971D03*
X024667Y008846D03*
X026042Y010846D03*
X019042Y010846D03*
X017667Y008846D03*
X017667Y007971D03*
X020167Y006846D03*
X013167Y006846D03*
X010667Y007971D03*
X010667Y008846D03*
X007917Y008846D03*
X006167Y006846D03*
X003542Y006596D03*
X012042Y010846D03*
X003542Y013596D03*
M02*
