G75*
G70*
%OFA0B0*%
%FSLAX24Y24*%
%IPPOS*%
%LPD*%
%AMOC8*
5,1,8,0,0,1.08239X$1,22.5*
%
%ADD10C,0.0060*%
%ADD11C,0.0252*%
%ADD12C,0.0789*%
%ADD13C,0.0674*%
%ADD14C,0.0680*%
%ADD15OC8,0.0680*%
%ADD16C,0.0680*%
%ADD17C,0.0476*%
%ADD18OC8,0.0476*%
D10*
X002845Y000482D02*
X002951Y000376D01*
X003272Y000376D01*
X003272Y000162D02*
X003272Y000803D01*
X002951Y000803D01*
X002845Y000696D01*
X002845Y000482D01*
X003489Y000482D02*
X003489Y000696D01*
X003596Y000803D01*
X003809Y000803D01*
X003916Y000696D01*
X003916Y000482D01*
X003809Y000376D01*
X003596Y000376D01*
X003489Y000482D01*
X004132Y000376D02*
X004239Y000482D01*
X004239Y000909D01*
X004346Y000803D02*
X004132Y000803D01*
X004563Y000803D02*
X004884Y000803D01*
X004990Y000696D01*
X004884Y000589D01*
X004670Y000589D01*
X004563Y000482D01*
X004670Y000376D01*
X004990Y000376D01*
X005208Y000269D02*
X005635Y000269D01*
X006172Y000376D02*
X006172Y000803D01*
X005959Y000803D02*
X005852Y000803D01*
X005959Y000803D02*
X006172Y000589D01*
X006390Y000589D02*
X006817Y000589D01*
X006817Y000482D02*
X006817Y000696D01*
X006710Y000803D01*
X006496Y000803D01*
X006390Y000696D01*
X006390Y000589D01*
X006496Y000376D02*
X006710Y000376D01*
X006817Y000482D01*
X007034Y000376D02*
X007354Y000376D01*
X007461Y000482D01*
X007461Y000696D01*
X007354Y000803D01*
X007034Y000803D01*
X007034Y001016D02*
X007034Y000376D01*
X007677Y000376D02*
X007891Y000376D01*
X007784Y000376D02*
X007784Y001016D01*
X007891Y001016D01*
X008108Y000696D02*
X008215Y000803D01*
X008429Y000803D01*
X008535Y000696D01*
X008535Y000482D01*
X008429Y000376D01*
X008215Y000376D01*
X008108Y000482D01*
X008108Y000696D01*
X008753Y000803D02*
X009073Y000803D01*
X009180Y000696D01*
X009073Y000589D01*
X008860Y000589D01*
X008753Y000482D01*
X008860Y000376D01*
X009180Y000376D01*
X009397Y000269D02*
X009824Y000269D01*
X010042Y000376D02*
X010042Y000696D01*
X010149Y000803D01*
X010255Y000696D01*
X010255Y000376D01*
X010469Y000376D02*
X010469Y000803D01*
X010362Y000803D01*
X010255Y000696D01*
X010686Y000696D02*
X010686Y000482D01*
X010793Y000376D01*
X011007Y000376D01*
X011113Y000482D01*
X011113Y000696D01*
X011007Y000803D01*
X010793Y000803D01*
X010686Y000696D01*
X011330Y000803D02*
X011543Y000803D01*
X011436Y000909D02*
X011436Y000482D01*
X011330Y000376D01*
X011759Y000376D02*
X011866Y000482D01*
X011866Y000909D01*
X011973Y000803D02*
X011759Y000803D01*
X012190Y000696D02*
X012297Y000803D01*
X012511Y000803D01*
X012617Y000696D01*
X012617Y000482D01*
X012511Y000376D01*
X012297Y000376D01*
X012190Y000482D01*
X012190Y000696D01*
X012835Y000696D02*
X012835Y000482D01*
X012942Y000376D01*
X013262Y000376D01*
X013262Y001016D01*
X013262Y000803D02*
X012942Y000803D01*
X012835Y000696D01*
X014464Y000803D02*
X014784Y000803D01*
X014891Y000696D01*
X014784Y000589D01*
X014571Y000589D01*
X014464Y000482D01*
X014571Y000376D01*
X014891Y000376D01*
X015108Y000376D02*
X015429Y000376D01*
X015535Y000482D01*
X015535Y000696D01*
X015429Y000803D01*
X015108Y000803D01*
X015108Y001016D02*
X015108Y000376D01*
X015753Y000589D02*
X015753Y000696D01*
X015860Y000803D01*
X016073Y000803D01*
X016180Y000696D01*
X016180Y000482D01*
X016073Y000376D01*
X015860Y000376D01*
X015753Y000589D02*
X016180Y000589D01*
X016396Y000376D02*
X016610Y000376D01*
X016503Y000376D02*
X016503Y001016D01*
X016610Y001016D01*
X016826Y000803D02*
X016933Y000803D01*
X017147Y000589D01*
X017147Y000376D02*
X017147Y000803D01*
X017364Y000696D02*
X017364Y000589D01*
X017791Y000589D01*
X017791Y000482D02*
X017791Y000696D01*
X017684Y000803D01*
X017471Y000803D01*
X017364Y000696D01*
X017684Y000376D02*
X017791Y000482D01*
X017684Y000376D02*
X017471Y000376D01*
X018009Y000803D02*
X018222Y000376D01*
X018436Y000803D01*
X018653Y000803D02*
X018759Y000803D01*
X018973Y000589D01*
X018973Y000376D02*
X018973Y000803D01*
X019190Y000696D02*
X019190Y000589D01*
X019617Y000589D01*
X019617Y000482D02*
X019617Y000696D01*
X019511Y000803D01*
X019297Y000803D01*
X019190Y000696D01*
X019511Y000376D02*
X019617Y000482D01*
X019511Y000376D02*
X019297Y000376D01*
X019835Y000482D02*
X019942Y000589D01*
X020155Y000589D01*
X020262Y000696D01*
X020155Y000803D01*
X019835Y000803D01*
X019835Y000482D02*
X019942Y000376D01*
X020262Y000376D01*
X022073Y000376D02*
X022500Y000376D01*
X022073Y000803D01*
X022073Y000909D01*
X022180Y001016D01*
X022393Y001016D01*
X022500Y000909D01*
X022718Y000909D02*
X022824Y001016D01*
X023038Y001016D01*
X023145Y000909D01*
X023362Y001016D02*
X023576Y000909D01*
X023789Y000696D01*
X023469Y000696D01*
X023362Y000589D01*
X023362Y000482D01*
X023469Y000376D01*
X023682Y000376D01*
X023789Y000482D01*
X023789Y000696D01*
X024007Y000909D02*
X024007Y000482D01*
X024113Y000376D01*
X024327Y000376D01*
X024434Y000482D01*
X024007Y000909D01*
X024113Y001016D01*
X024327Y001016D01*
X024434Y000909D01*
X024434Y000482D01*
X024651Y000376D02*
X025078Y000376D01*
X024865Y000376D02*
X024865Y001016D01*
X025078Y000803D01*
X025509Y001016D02*
X025509Y000376D01*
X025296Y000376D02*
X025723Y000376D01*
X025940Y000482D02*
X026047Y000376D01*
X026261Y000376D01*
X026367Y000482D01*
X025940Y000909D01*
X025940Y000482D01*
X026367Y000482D02*
X026367Y000909D01*
X026261Y001016D01*
X026047Y001016D01*
X025940Y000909D01*
X025723Y000803D02*
X025509Y001016D01*
X026585Y000909D02*
X026692Y001016D01*
X026905Y001016D01*
X027012Y000909D01*
X026585Y000909D02*
X026585Y000803D01*
X027012Y000376D01*
X026585Y000376D01*
X023145Y000376D02*
X022718Y000803D01*
X022718Y000909D01*
X022718Y000376D02*
X023145Y000376D01*
D11*
X021788Y012395D02*
X021788Y013797D01*
X022796Y013797D01*
X022796Y012395D01*
X021788Y012395D01*
X021788Y012646D02*
X022796Y012646D01*
X022796Y012897D02*
X021788Y012897D01*
X021788Y013148D02*
X022796Y013148D01*
X022796Y013399D02*
X021788Y013399D01*
X021788Y013650D02*
X022796Y013650D01*
X023538Y013797D02*
X023538Y012395D01*
X023538Y013797D02*
X024546Y013797D01*
X024546Y012395D01*
X023538Y012395D01*
X023538Y012646D02*
X024546Y012646D01*
X024546Y012897D02*
X023538Y012897D01*
X023538Y013148D02*
X024546Y013148D01*
X024546Y013399D02*
X023538Y013399D01*
X023538Y013650D02*
X024546Y013650D01*
X025288Y013797D02*
X025288Y012395D01*
X025288Y013797D02*
X026296Y013797D01*
X026296Y012395D01*
X025288Y012395D01*
X025288Y012646D02*
X026296Y012646D01*
X026296Y012897D02*
X025288Y012897D01*
X025288Y013148D02*
X026296Y013148D01*
X026296Y013399D02*
X025288Y013399D01*
X025288Y013650D02*
X026296Y013650D01*
X027038Y013797D02*
X027038Y012395D01*
X027038Y013797D02*
X028046Y013797D01*
X028046Y012395D01*
X027038Y012395D01*
X027038Y012646D02*
X028046Y012646D01*
X028046Y012897D02*
X027038Y012897D01*
X027038Y013148D02*
X028046Y013148D01*
X028046Y013399D02*
X027038Y013399D01*
X027038Y013650D02*
X028046Y013650D01*
X028788Y013797D02*
X028788Y012395D01*
X028788Y013797D02*
X029796Y013797D01*
X029796Y012395D01*
X028788Y012395D01*
X028788Y012646D02*
X029796Y012646D01*
X029796Y012897D02*
X028788Y012897D01*
X028788Y013148D02*
X029796Y013148D01*
X029796Y013399D02*
X028788Y013399D01*
X028788Y013650D02*
X029796Y013650D01*
X030538Y013797D02*
X030538Y012395D01*
X030538Y013797D02*
X031546Y013797D01*
X031546Y012395D01*
X030538Y012395D01*
X030538Y012646D02*
X031546Y012646D01*
X031546Y012897D02*
X030538Y012897D01*
X030538Y013148D02*
X031546Y013148D01*
X031546Y013399D02*
X030538Y013399D01*
X030538Y013650D02*
X031546Y013650D01*
X020038Y013797D02*
X020038Y012395D01*
X020038Y013797D02*
X021046Y013797D01*
X021046Y012395D01*
X020038Y012395D01*
X020038Y012646D02*
X021046Y012646D01*
X021046Y012897D02*
X020038Y012897D01*
X020038Y013148D02*
X021046Y013148D01*
X021046Y013399D02*
X020038Y013399D01*
X020038Y013650D02*
X021046Y013650D01*
X018288Y013797D02*
X018288Y012395D01*
X018288Y013797D02*
X019296Y013797D01*
X019296Y012395D01*
X018288Y012395D01*
X018288Y012646D02*
X019296Y012646D01*
X019296Y012897D02*
X018288Y012897D01*
X018288Y013148D02*
X019296Y013148D01*
X019296Y013399D02*
X018288Y013399D01*
X018288Y013650D02*
X019296Y013650D01*
X016538Y013797D02*
X016538Y012395D01*
X016538Y013797D02*
X017546Y013797D01*
X017546Y012395D01*
X016538Y012395D01*
X016538Y012646D02*
X017546Y012646D01*
X017546Y012897D02*
X016538Y012897D01*
X016538Y013148D02*
X017546Y013148D01*
X017546Y013399D02*
X016538Y013399D01*
X016538Y013650D02*
X017546Y013650D01*
X014788Y013797D02*
X014788Y012395D01*
X014788Y013797D02*
X015796Y013797D01*
X015796Y012395D01*
X014788Y012395D01*
X014788Y012646D02*
X015796Y012646D01*
X015796Y012897D02*
X014788Y012897D01*
X014788Y013148D02*
X015796Y013148D01*
X015796Y013399D02*
X014788Y013399D01*
X014788Y013650D02*
X015796Y013650D01*
X013038Y013797D02*
X013038Y012395D01*
X013038Y013797D02*
X014046Y013797D01*
X014046Y012395D01*
X013038Y012395D01*
X013038Y012646D02*
X014046Y012646D01*
X014046Y012897D02*
X013038Y012897D01*
X013038Y013148D02*
X014046Y013148D01*
X014046Y013399D02*
X013038Y013399D01*
X013038Y013650D02*
X014046Y013650D01*
X011288Y013797D02*
X011288Y012395D01*
X011288Y013797D02*
X012296Y013797D01*
X012296Y012395D01*
X011288Y012395D01*
X011288Y012646D02*
X012296Y012646D01*
X012296Y012897D02*
X011288Y012897D01*
X011288Y013148D02*
X012296Y013148D01*
X012296Y013399D02*
X011288Y013399D01*
X011288Y013650D02*
X012296Y013650D01*
X009538Y013797D02*
X009538Y012395D01*
X009538Y013797D02*
X010546Y013797D01*
X010546Y012395D01*
X009538Y012395D01*
X009538Y012646D02*
X010546Y012646D01*
X010546Y012897D02*
X009538Y012897D01*
X009538Y013148D02*
X010546Y013148D01*
X010546Y013399D02*
X009538Y013399D01*
X009538Y013650D02*
X010546Y013650D01*
X007788Y013797D02*
X007788Y012395D01*
X007788Y013797D02*
X008796Y013797D01*
X008796Y012395D01*
X007788Y012395D01*
X007788Y012646D02*
X008796Y012646D01*
X008796Y012897D02*
X007788Y012897D01*
X007788Y013148D02*
X008796Y013148D01*
X008796Y013399D02*
X007788Y013399D01*
X007788Y013650D02*
X008796Y013650D01*
X006038Y013797D02*
X006038Y012395D01*
X006038Y013797D02*
X007046Y013797D01*
X007046Y012395D01*
X006038Y012395D01*
X006038Y012646D02*
X007046Y012646D01*
X007046Y012897D02*
X006038Y012897D01*
X006038Y013148D02*
X007046Y013148D01*
X007046Y013399D02*
X006038Y013399D01*
X006038Y013650D02*
X007046Y013650D01*
X004288Y013797D02*
X004288Y012395D01*
X004288Y013797D02*
X005296Y013797D01*
X005296Y012395D01*
X004288Y012395D01*
X004288Y012646D02*
X005296Y012646D01*
X005296Y012897D02*
X004288Y012897D01*
X004288Y013148D02*
X005296Y013148D01*
X005296Y013399D02*
X004288Y013399D01*
X004288Y013650D02*
X005296Y013650D01*
D12*
X041101Y012338D03*
X043857Y012338D03*
D13*
X043365Y013322D03*
X041593Y013322D03*
D14*
X034042Y007346D03*
D15*
X033042Y007346D03*
X033042Y008346D03*
X034042Y008346D03*
X034042Y009346D03*
X033042Y009346D03*
D16*
X047492Y009596D02*
X048092Y009596D01*
X048092Y010596D02*
X047492Y010596D01*
X047492Y011596D02*
X048092Y011596D01*
X048092Y012596D02*
X047492Y012596D01*
X047492Y013596D02*
X048092Y013596D01*
X048092Y008596D02*
X047492Y008596D01*
X047492Y007596D02*
X048092Y007596D01*
X048092Y006596D02*
X047492Y006596D01*
D17*
X043542Y009096D03*
X044542Y011096D03*
X031417Y009721D03*
X030167Y010846D03*
X029167Y010846D03*
X028167Y009346D03*
X027167Y009346D03*
X028167Y008346D03*
X025729Y007096D03*
X023854Y007096D03*
X018729Y007096D03*
X016854Y007096D03*
X011729Y007096D03*
X009854Y007096D03*
X007167Y009346D03*
X006167Y009346D03*
X008167Y010846D03*
X009167Y010846D03*
X013167Y009346D03*
X014167Y009346D03*
X015167Y010846D03*
X016167Y010846D03*
X020167Y009346D03*
X021167Y009346D03*
X022167Y010846D03*
X023167Y010846D03*
D18*
X026042Y010846D03*
X024667Y008846D03*
X024667Y007971D03*
X027167Y006846D03*
X031042Y007471D03*
X035229Y007033D03*
X036792Y008346D03*
X037667Y008471D03*
X039417Y007471D03*
X041917Y007096D03*
X040292Y006471D03*
X044042Y008346D03*
X044292Y009846D03*
X045792Y011846D03*
X049542Y011096D03*
X049542Y007221D03*
X047042Y007096D03*
X045292Y007033D03*
X038542Y009533D03*
X037667Y010221D03*
X035292Y010846D03*
X033292Y010846D03*
X037292Y011596D03*
X038667Y013721D03*
X020167Y006846D03*
X017667Y007971D03*
X017667Y008846D03*
X019042Y010846D03*
X012042Y010846D03*
X010667Y008846D03*
X010667Y007971D03*
X013167Y006846D03*
X007917Y008846D03*
X006167Y006846D03*
X003542Y006596D03*
X003542Y013596D03*
M02*
