%
M48
M72
T01C0.0236
T02C0.0394
T03C0.0400
T04C0.0472
%
T01
X3542Y6596
X6167Y6846
X9854Y7096
X11729Y7096
X13167Y6846
X10667Y7971
X10667Y8846
X13167Y9346
X14167Y9346
X17667Y8846
X17667Y7971
X16854Y7096
X18729Y7096
X20167Y6846
X23854Y7096
X25729Y7096
X27167Y6846
X24667Y7971
X24667Y8846
X27167Y9346
X28167Y9346
X28167Y8346
X31042Y7471
X35229Y7033
X36792Y8346
X37667Y8471
X39417Y7471
X41917Y7096
X40292Y6471
X44042Y8346
X43542Y9096
X44292Y9846
X44542Y11096
X45792Y11846
X49542Y11096
X49542Y7221
X47042Y7096
X45292Y7033
X38542Y9533
X37667Y10221
X35292Y10846
X33292Y10846
X31417Y9721
X30167Y10846
X29167Y10846
X26042Y10846
X23167Y10846
X22167Y10846
X19042Y10846
X16167Y10846
X15167Y10846
X12042Y10846
X9167Y10846
X8167Y10846
X7167Y9346
X6167Y9346
X7917Y8846
X3542Y13596
X20167Y9346
X21167Y9346
X37292Y11596
X38667Y13721
T02
X41593Y13322
X43365Y13322
T03
X47792Y13596
X47792Y12596
X47792Y11596
X47792Y10596
X47792Y9596
X47792Y8596
X47792Y7596
X47792Y6596
X34042Y7346
X33042Y7346
X33042Y8346
X34042Y8346
X34042Y9346
X33042Y9346
T04
X41101Y12338
X43857Y12338
M30
