G75*
G70*
%OFA0B0*%
%FSLAX24Y24*%
%IPPOS*%
%LPD*%
%AMOC8*
5,1,8,0,0,1.08239X$1,22.5*
%
%ADD10C,0.0060*%
%ADD11R,0.0340X0.0880*%
%ADD12C,0.0252*%
%ADD13R,0.0493X0.0592*%
%ADD14R,0.0300X0.0580*%
%ADD15R,0.0580X0.0300*%
%ADD16R,0.0880X0.0340*%
%ADD17R,0.0592X0.0493*%
%ADD18R,0.2180X0.0840*%
%ADD19C,0.0789*%
%ADD20C,0.0674*%
%ADD21C,0.0680*%
%ADD22OC8,0.0680*%
%ADD23R,0.0395X0.0395*%
%ADD24C,0.0680*%
%ADD25R,0.0592X0.0434*%
%ADD26R,0.0749X0.0572*%
%ADD27C,0.0476*%
%ADD28OC8,0.0476*%
D10*
X003896Y002162D02*
X003896Y002803D01*
X004216Y002803D01*
X004323Y002696D01*
X004323Y002482D01*
X004216Y002376D01*
X003896Y002376D01*
X003679Y002482D02*
X003572Y002376D01*
X003358Y002376D01*
X003251Y002482D01*
X003251Y002696D01*
X003358Y002803D01*
X003572Y002803D01*
X003679Y002696D01*
X003679Y002482D01*
X003035Y002376D02*
X002929Y002482D01*
X002929Y002909D01*
X003035Y002803D02*
X002822Y002803D01*
X004541Y002269D02*
X004968Y002269D01*
X005185Y002376D02*
X005505Y002376D01*
X005612Y002482D01*
X005505Y002589D01*
X005292Y002589D01*
X005185Y002696D01*
X005292Y002803D01*
X005612Y002803D01*
X005830Y002696D02*
X005936Y002803D01*
X006150Y002803D01*
X006257Y002696D01*
X006257Y002482D01*
X006150Y002376D01*
X005936Y002376D01*
X005830Y002482D01*
X005830Y002696D01*
X006474Y003016D02*
X006581Y003016D01*
X006581Y002376D01*
X006474Y002376D02*
X006688Y002376D01*
X006904Y002482D02*
X007011Y002376D01*
X007331Y002376D01*
X007331Y003016D01*
X007331Y002803D02*
X007011Y002803D01*
X006904Y002696D01*
X006904Y002482D01*
X007548Y002482D02*
X007548Y002696D01*
X007655Y002803D01*
X007869Y002803D01*
X007975Y002696D01*
X007975Y002589D01*
X007548Y002589D01*
X007548Y002482D02*
X007655Y002376D01*
X007869Y002376D01*
X008193Y002376D02*
X008193Y002803D01*
X008406Y002803D02*
X008513Y002803D01*
X008406Y002803D02*
X008193Y002589D01*
X008730Y002269D02*
X009157Y002269D01*
X009374Y002376D02*
X009695Y002376D01*
X009801Y002482D01*
X009695Y002589D01*
X009481Y002589D01*
X009374Y002696D01*
X009481Y002803D01*
X009801Y002803D01*
X010019Y002803D02*
X010233Y002803D01*
X010126Y002909D02*
X010126Y002482D01*
X010233Y002376D01*
X010449Y002482D02*
X010555Y002376D01*
X010769Y002376D01*
X010876Y002482D01*
X010876Y002696D01*
X010769Y002803D01*
X010555Y002803D01*
X010449Y002696D01*
X010449Y002482D01*
X011093Y002376D02*
X011413Y002376D01*
X011520Y002482D01*
X011520Y002696D01*
X011413Y002803D01*
X011093Y002803D01*
X011093Y002162D01*
X014572Y002376D02*
X014892Y002376D01*
X014999Y002482D01*
X014892Y002589D01*
X014679Y002589D01*
X014572Y002696D01*
X014679Y002803D01*
X014999Y002803D01*
X015216Y002696D02*
X015323Y002803D01*
X015537Y002803D01*
X015643Y002696D01*
X015643Y002589D01*
X015216Y002589D01*
X015216Y002482D02*
X015216Y002696D01*
X015216Y002482D02*
X015323Y002376D01*
X015537Y002376D01*
X015861Y002376D02*
X015861Y002803D01*
X016074Y002803D02*
X016181Y002803D01*
X016074Y002803D02*
X015861Y002589D01*
X016398Y002803D02*
X016611Y002376D01*
X016825Y002803D01*
X017042Y002696D02*
X017149Y002803D01*
X017363Y002803D01*
X017469Y002696D01*
X017469Y002589D01*
X017042Y002589D01*
X017042Y002482D02*
X017042Y002696D01*
X017042Y002482D02*
X017149Y002376D01*
X017363Y002376D01*
X017687Y002376D02*
X017687Y002803D01*
X017901Y002803D02*
X018007Y002803D01*
X017901Y002803D02*
X017687Y002589D01*
X018654Y002589D02*
X019081Y002589D01*
X019081Y002696D01*
X018974Y002803D01*
X018761Y002803D01*
X018654Y002696D01*
X018654Y002482D01*
X018761Y002376D01*
X018974Y002376D01*
X019298Y002482D02*
X019298Y002696D01*
X019405Y002803D01*
X019725Y002803D01*
X019725Y003016D02*
X019725Y002376D01*
X019405Y002376D01*
X019298Y002482D01*
X019943Y002376D02*
X020263Y002376D01*
X020370Y002482D01*
X020263Y002589D01*
X020050Y002589D01*
X019943Y002696D01*
X020050Y002803D01*
X020370Y002803D01*
X022072Y002909D02*
X022179Y003016D01*
X022392Y003016D01*
X022499Y002909D01*
X022499Y002803D01*
X022072Y002376D01*
X022499Y002376D01*
X022716Y002482D02*
X023143Y002909D01*
X023143Y002482D01*
X023037Y002376D01*
X022823Y002376D01*
X022716Y002482D01*
X022716Y002909D01*
X022823Y003016D01*
X023037Y003016D01*
X023143Y002909D01*
X023361Y002803D02*
X023574Y003016D01*
X023574Y002376D01*
X023361Y002376D02*
X023788Y002376D01*
X024005Y002376D02*
X024432Y002376D01*
X024219Y002376D02*
X024219Y003016D01*
X024005Y002803D01*
X024650Y002909D02*
X024757Y003016D01*
X024970Y003016D01*
X025077Y002909D01*
X024650Y002482D01*
X024757Y002376D01*
X024970Y002376D01*
X025077Y002482D01*
X025077Y002909D01*
X025294Y002696D02*
X025615Y002696D01*
X025721Y002589D01*
X025721Y002482D01*
X025615Y002376D01*
X025401Y002376D01*
X025294Y002482D01*
X025294Y002696D01*
X025508Y002909D01*
X025721Y003016D01*
X025939Y002909D02*
X026046Y003016D01*
X026259Y003016D01*
X026366Y002909D01*
X026366Y002803D01*
X025939Y002376D01*
X026366Y002376D01*
X026584Y002376D02*
X027011Y002803D01*
X027011Y002909D01*
X026904Y003016D01*
X026690Y003016D01*
X026584Y002909D01*
X026584Y002376D02*
X027011Y002376D01*
X024650Y002482D02*
X024650Y002909D01*
X018438Y002376D02*
X018224Y002376D01*
X018331Y002376D02*
X018331Y003016D01*
X018224Y003016D01*
D11*
X019667Y007636D03*
X020167Y007636D03*
X020667Y007636D03*
X021167Y007636D03*
X021667Y007636D03*
X022167Y007636D03*
X022667Y007636D03*
X023167Y007636D03*
X026667Y007636D03*
X027167Y007636D03*
X027667Y007636D03*
X028167Y007636D03*
X028667Y007636D03*
X029167Y007636D03*
X029667Y007636D03*
X030167Y007636D03*
X030167Y010056D03*
X029667Y010056D03*
X029167Y010056D03*
X028667Y010056D03*
X028167Y010056D03*
X027667Y010056D03*
X027167Y010056D03*
X026667Y010056D03*
X023167Y010056D03*
X022667Y010056D03*
X022167Y010056D03*
X021667Y010056D03*
X021167Y010056D03*
X020667Y010056D03*
X020167Y010056D03*
X019667Y010056D03*
X016167Y010056D03*
X015667Y010056D03*
X015167Y010056D03*
X014667Y010056D03*
X014167Y010056D03*
X013667Y010056D03*
X013167Y010056D03*
X012667Y010056D03*
X009167Y010056D03*
X008667Y010056D03*
X008167Y010056D03*
X007667Y010056D03*
X007167Y010056D03*
X006667Y010056D03*
X006167Y010056D03*
X005667Y010056D03*
X005667Y007636D03*
X006167Y007636D03*
X006667Y007636D03*
X007167Y007636D03*
X007667Y007636D03*
X008167Y007636D03*
X008667Y007636D03*
X009167Y007636D03*
X012667Y007636D03*
X013167Y007636D03*
X013667Y007636D03*
X014167Y007636D03*
X014667Y007636D03*
X015167Y007636D03*
X015667Y007636D03*
X016167Y007636D03*
D12*
X016538Y012395D02*
X016538Y013797D01*
X017546Y013797D01*
X017546Y012395D01*
X016538Y012395D01*
X016538Y012646D02*
X017546Y012646D01*
X017546Y012897D02*
X016538Y012897D01*
X016538Y013148D02*
X017546Y013148D01*
X017546Y013399D02*
X016538Y013399D01*
X016538Y013650D02*
X017546Y013650D01*
X018288Y013797D02*
X018288Y012395D01*
X018288Y013797D02*
X019296Y013797D01*
X019296Y012395D01*
X018288Y012395D01*
X018288Y012646D02*
X019296Y012646D01*
X019296Y012897D02*
X018288Y012897D01*
X018288Y013148D02*
X019296Y013148D01*
X019296Y013399D02*
X018288Y013399D01*
X018288Y013650D02*
X019296Y013650D01*
X020038Y013797D02*
X020038Y012395D01*
X020038Y013797D02*
X021046Y013797D01*
X021046Y012395D01*
X020038Y012395D01*
X020038Y012646D02*
X021046Y012646D01*
X021046Y012897D02*
X020038Y012897D01*
X020038Y013148D02*
X021046Y013148D01*
X021046Y013399D02*
X020038Y013399D01*
X020038Y013650D02*
X021046Y013650D01*
X021788Y013797D02*
X021788Y012395D01*
X021788Y013797D02*
X022796Y013797D01*
X022796Y012395D01*
X021788Y012395D01*
X021788Y012646D02*
X022796Y012646D01*
X022796Y012897D02*
X021788Y012897D01*
X021788Y013148D02*
X022796Y013148D01*
X022796Y013399D02*
X021788Y013399D01*
X021788Y013650D02*
X022796Y013650D01*
X023538Y013797D02*
X023538Y012395D01*
X023538Y013797D02*
X024546Y013797D01*
X024546Y012395D01*
X023538Y012395D01*
X023538Y012646D02*
X024546Y012646D01*
X024546Y012897D02*
X023538Y012897D01*
X023538Y013148D02*
X024546Y013148D01*
X024546Y013399D02*
X023538Y013399D01*
X023538Y013650D02*
X024546Y013650D01*
X025288Y013797D02*
X025288Y012395D01*
X025288Y013797D02*
X026296Y013797D01*
X026296Y012395D01*
X025288Y012395D01*
X025288Y012646D02*
X026296Y012646D01*
X026296Y012897D02*
X025288Y012897D01*
X025288Y013148D02*
X026296Y013148D01*
X026296Y013399D02*
X025288Y013399D01*
X025288Y013650D02*
X026296Y013650D01*
X027038Y013797D02*
X027038Y012395D01*
X027038Y013797D02*
X028046Y013797D01*
X028046Y012395D01*
X027038Y012395D01*
X027038Y012646D02*
X028046Y012646D01*
X028046Y012897D02*
X027038Y012897D01*
X027038Y013148D02*
X028046Y013148D01*
X028046Y013399D02*
X027038Y013399D01*
X027038Y013650D02*
X028046Y013650D01*
X028788Y013797D02*
X028788Y012395D01*
X028788Y013797D02*
X029796Y013797D01*
X029796Y012395D01*
X028788Y012395D01*
X028788Y012646D02*
X029796Y012646D01*
X029796Y012897D02*
X028788Y012897D01*
X028788Y013148D02*
X029796Y013148D01*
X029796Y013399D02*
X028788Y013399D01*
X028788Y013650D02*
X029796Y013650D01*
X030538Y013797D02*
X030538Y012395D01*
X030538Y013797D02*
X031546Y013797D01*
X031546Y012395D01*
X030538Y012395D01*
X030538Y012646D02*
X031546Y012646D01*
X031546Y012897D02*
X030538Y012897D01*
X030538Y013148D02*
X031546Y013148D01*
X031546Y013399D02*
X030538Y013399D01*
X030538Y013650D02*
X031546Y013650D01*
X014788Y013797D02*
X014788Y012395D01*
X014788Y013797D02*
X015796Y013797D01*
X015796Y012395D01*
X014788Y012395D01*
X014788Y012646D02*
X015796Y012646D01*
X015796Y012897D02*
X014788Y012897D01*
X014788Y013148D02*
X015796Y013148D01*
X015796Y013399D02*
X014788Y013399D01*
X014788Y013650D02*
X015796Y013650D01*
X013038Y013797D02*
X013038Y012395D01*
X013038Y013797D02*
X014046Y013797D01*
X014046Y012395D01*
X013038Y012395D01*
X013038Y012646D02*
X014046Y012646D01*
X014046Y012897D02*
X013038Y012897D01*
X013038Y013148D02*
X014046Y013148D01*
X014046Y013399D02*
X013038Y013399D01*
X013038Y013650D02*
X014046Y013650D01*
X011288Y013797D02*
X011288Y012395D01*
X011288Y013797D02*
X012296Y013797D01*
X012296Y012395D01*
X011288Y012395D01*
X011288Y012646D02*
X012296Y012646D01*
X012296Y012897D02*
X011288Y012897D01*
X011288Y013148D02*
X012296Y013148D01*
X012296Y013399D02*
X011288Y013399D01*
X011288Y013650D02*
X012296Y013650D01*
X009538Y013797D02*
X009538Y012395D01*
X009538Y013797D02*
X010546Y013797D01*
X010546Y012395D01*
X009538Y012395D01*
X009538Y012646D02*
X010546Y012646D01*
X010546Y012897D02*
X009538Y012897D01*
X009538Y013148D02*
X010546Y013148D01*
X010546Y013399D02*
X009538Y013399D01*
X009538Y013650D02*
X010546Y013650D01*
X007788Y013797D02*
X007788Y012395D01*
X007788Y013797D02*
X008796Y013797D01*
X008796Y012395D01*
X007788Y012395D01*
X007788Y012646D02*
X008796Y012646D01*
X008796Y012897D02*
X007788Y012897D01*
X007788Y013148D02*
X008796Y013148D01*
X008796Y013399D02*
X007788Y013399D01*
X007788Y013650D02*
X008796Y013650D01*
X006038Y013797D02*
X006038Y012395D01*
X006038Y013797D02*
X007046Y013797D01*
X007046Y012395D01*
X006038Y012395D01*
X006038Y012646D02*
X007046Y012646D01*
X007046Y012897D02*
X006038Y012897D01*
X006038Y013148D02*
X007046Y013148D01*
X007046Y013399D02*
X006038Y013399D01*
X006038Y013650D02*
X007046Y013650D01*
X004288Y013797D02*
X004288Y012395D01*
X004288Y013797D02*
X005296Y013797D01*
X005296Y012395D01*
X004288Y012395D01*
X004288Y012646D02*
X005296Y012646D01*
X005296Y012897D02*
X004288Y012897D01*
X004288Y013148D02*
X005296Y013148D01*
X005296Y013399D02*
X004288Y013399D01*
X004288Y013650D02*
X005296Y013650D01*
D13*
X005264Y011596D03*
X006069Y011596D03*
X007014Y011596D03*
X007819Y011596D03*
X008764Y011596D03*
X009569Y011596D03*
X010514Y011596D03*
X011319Y011596D03*
X012264Y011596D03*
X013069Y011596D03*
X014014Y011596D03*
X014819Y011596D03*
X015764Y011596D03*
X016569Y011596D03*
X017514Y011596D03*
X018319Y011596D03*
X019264Y011596D03*
X020069Y011596D03*
X021014Y011596D03*
X021819Y011596D03*
X022764Y011596D03*
X023569Y011596D03*
X024514Y011596D03*
X025319Y011596D03*
X026264Y011596D03*
X027069Y011596D03*
X028014Y011596D03*
X028819Y011596D03*
X029764Y011596D03*
X030569Y011596D03*
X031514Y011596D03*
X033819Y010846D03*
X034764Y010846D03*
X040319Y010846D03*
X041264Y010846D03*
X041264Y010096D03*
X040319Y010096D03*
X040319Y009346D03*
X041264Y009346D03*
X041264Y008596D03*
X040319Y008596D03*
X040319Y007846D03*
X041264Y007846D03*
X041264Y007096D03*
X040319Y007096D03*
X038327Y006846D03*
X037382Y006846D03*
X036764Y006846D03*
X035819Y006846D03*
X043569Y006846D03*
X044514Y006846D03*
X044257Y013346D03*
X045202Y013346D03*
X045757Y013346D03*
X046702Y013346D03*
X004889Y009846D03*
X003944Y009846D03*
X003944Y008846D03*
X004889Y008846D03*
X004889Y007846D03*
X003944Y007846D03*
X004319Y011596D03*
D14*
X036439Y011036D03*
X036754Y011036D03*
X037069Y011036D03*
X037384Y011036D03*
X037699Y011036D03*
X038014Y011036D03*
X038329Y011036D03*
X038644Y011036D03*
X038644Y007656D03*
X038329Y007656D03*
X038014Y007656D03*
X037699Y007656D03*
X037384Y007656D03*
X037069Y007656D03*
X036754Y007656D03*
X036439Y007656D03*
D15*
X035852Y008243D03*
X035852Y008558D03*
X035852Y008873D03*
X035852Y009188D03*
X035852Y009503D03*
X035852Y009818D03*
X035852Y010133D03*
X035852Y010448D03*
X039232Y010448D03*
X039232Y010133D03*
X039232Y009818D03*
X039232Y009503D03*
X039232Y009188D03*
X039232Y008873D03*
X039232Y008558D03*
X039232Y008243D03*
D16*
X042832Y008096D03*
X042832Y007596D03*
X042832Y008596D03*
X042832Y009096D03*
X042832Y009596D03*
X042832Y010096D03*
X042832Y010596D03*
X042832Y011096D03*
X045252Y011096D03*
X045252Y010596D03*
X045252Y010096D03*
X045252Y009596D03*
X045252Y009096D03*
X045252Y008596D03*
X045252Y008096D03*
X045252Y007596D03*
D17*
X046292Y007373D03*
X046292Y008318D03*
X046292Y008873D03*
X046292Y009818D03*
X046292Y010373D03*
X046292Y011318D03*
X040292Y012373D03*
X039292Y012373D03*
X039292Y013318D03*
X040292Y013318D03*
X032292Y013318D03*
X032292Y012373D03*
X032042Y009068D03*
X031042Y009068D03*
X031042Y008123D03*
X032042Y008123D03*
X024042Y007873D03*
X024042Y008818D03*
X017042Y008818D03*
X017042Y007873D03*
X010042Y007873D03*
X010042Y008818D03*
D18*
X033892Y012846D03*
X037692Y012846D03*
D19*
X041101Y012338D03*
X043857Y012338D03*
D20*
X043365Y013322D03*
X041593Y013322D03*
D21*
X034042Y007346D03*
D22*
X033042Y007346D03*
X033042Y008346D03*
X034042Y008346D03*
X034042Y009346D03*
X033042Y009346D03*
D23*
X044827Y012096D03*
X044827Y012596D03*
X046756Y012596D03*
X046756Y012096D03*
D24*
X047492Y011596D02*
X048092Y011596D01*
X048092Y012596D02*
X047492Y012596D01*
X047492Y013596D02*
X048092Y013596D01*
X048092Y010596D02*
X047492Y010596D01*
X047492Y009596D02*
X048092Y009596D01*
X048092Y008596D02*
X047492Y008596D01*
X047492Y007596D02*
X048092Y007596D01*
X048092Y006596D02*
X047492Y006596D01*
D25*
X049042Y008784D03*
X049042Y009532D03*
D26*
X049042Y010407D03*
X049042Y011785D03*
X049042Y007910D03*
X049042Y006532D03*
D27*
X043542Y009096D03*
X044542Y011096D03*
X031417Y009721D03*
X030167Y010846D03*
X029167Y010846D03*
X028167Y009346D03*
X027167Y009346D03*
X028167Y008346D03*
X025729Y007096D03*
X023854Y007096D03*
X018729Y007096D03*
X016854Y007096D03*
X011729Y007096D03*
X009854Y007096D03*
X007167Y009346D03*
X006167Y009346D03*
X008167Y010846D03*
X009167Y010846D03*
X013167Y009346D03*
X014167Y009346D03*
X015167Y010846D03*
X016167Y010846D03*
X020167Y009346D03*
X021167Y009346D03*
X022167Y010846D03*
X023167Y010846D03*
D28*
X026042Y010846D03*
X024667Y008846D03*
X024667Y007971D03*
X027167Y006846D03*
X031042Y007471D03*
X035229Y007033D03*
X036792Y008346D03*
X037667Y008471D03*
X039417Y007471D03*
X041917Y007096D03*
X040292Y006471D03*
X044042Y008346D03*
X044292Y009846D03*
X045792Y011846D03*
X049542Y011096D03*
X049542Y007221D03*
X047042Y007096D03*
X045292Y007033D03*
X038542Y009533D03*
X037667Y010221D03*
X035292Y010846D03*
X033292Y010846D03*
X037292Y011596D03*
X038667Y013721D03*
X020167Y006846D03*
X017667Y007971D03*
X017667Y008846D03*
X019042Y010846D03*
X012042Y010846D03*
X010667Y008846D03*
X010667Y007971D03*
X013167Y006846D03*
X007917Y008846D03*
X006167Y006846D03*
X003542Y006596D03*
X003542Y013596D03*
M02*
