G75*
G70*
%OFA0B0*%
%FSLAX24Y24*%
%IPPOS*%
%LPD*%
%AMOC8*
5,1,8,0,0,1.08239X$1,22.5*
%
%ADD10C,0.0000*%
%ADD11C,0.0060*%
D10*
X002792Y005846D02*
X050292Y005846D01*
X050292Y014346D01*
X002792Y014346D01*
X002792Y005846D01*
D11*
X002822Y004482D02*
X002929Y004376D01*
X003249Y004376D01*
X003249Y005016D01*
X003249Y004803D02*
X002929Y004803D01*
X002822Y004696D01*
X002822Y004482D01*
X003466Y004376D02*
X003680Y004376D01*
X003573Y004376D02*
X003573Y004803D01*
X003466Y004803D01*
X003573Y005016D02*
X003573Y005123D01*
X003896Y004803D02*
X004003Y004803D01*
X004110Y004696D01*
X004216Y004803D01*
X004323Y004696D01*
X004323Y004376D01*
X004110Y004376D02*
X004110Y004696D01*
X003896Y004803D02*
X003896Y004376D01*
X004541Y004482D02*
X004541Y004696D01*
X004647Y004803D01*
X004861Y004803D01*
X004968Y004696D01*
X004968Y004589D01*
X004541Y004589D01*
X004541Y004482D02*
X004647Y004376D01*
X004861Y004376D01*
X005185Y004376D02*
X005185Y004803D01*
X005505Y004803D01*
X005612Y004696D01*
X005612Y004376D01*
X005830Y004376D02*
X006150Y004376D01*
X006257Y004482D01*
X006150Y004589D01*
X005936Y004589D01*
X005830Y004696D01*
X005936Y004803D01*
X006257Y004803D01*
X006474Y004803D02*
X006581Y004803D01*
X006581Y004376D01*
X006474Y004376D02*
X006688Y004376D01*
X006904Y004482D02*
X007011Y004376D01*
X007224Y004376D01*
X007331Y004482D01*
X007331Y004696D01*
X007224Y004803D01*
X007011Y004803D01*
X006904Y004696D01*
X006904Y004482D01*
X007548Y004376D02*
X007548Y004803D01*
X007869Y004803D01*
X007975Y004696D01*
X007975Y004376D01*
X006581Y005016D02*
X006581Y005123D01*
X014572Y004696D02*
X014679Y004803D01*
X014999Y004803D01*
X014892Y004589D02*
X014679Y004589D01*
X014572Y004696D01*
X014572Y004376D02*
X014892Y004376D01*
X014999Y004482D01*
X014892Y004589D01*
X015216Y004589D02*
X015643Y004589D01*
X015643Y004696D01*
X015537Y004803D01*
X015323Y004803D01*
X015216Y004696D01*
X015216Y004482D01*
X015323Y004376D01*
X015537Y004376D01*
X015861Y004376D02*
X015861Y004803D01*
X016074Y004803D02*
X016181Y004803D01*
X016074Y004803D02*
X015861Y004589D01*
X016398Y004803D02*
X016611Y004376D01*
X016825Y004803D01*
X017042Y004696D02*
X017149Y004803D01*
X017363Y004803D01*
X017469Y004696D01*
X017469Y004589D01*
X017042Y004589D01*
X017042Y004482D02*
X017042Y004696D01*
X017042Y004482D02*
X017149Y004376D01*
X017363Y004376D01*
X017687Y004376D02*
X017687Y004803D01*
X017901Y004803D02*
X018007Y004803D01*
X017901Y004803D02*
X017687Y004589D01*
X018224Y004376D02*
X018438Y004376D01*
X018331Y004376D02*
X018331Y005016D01*
X018224Y005016D01*
X018654Y004696D02*
X018761Y004803D01*
X018974Y004803D01*
X019081Y004696D01*
X019081Y004589D01*
X018654Y004589D01*
X018654Y004482D02*
X018654Y004696D01*
X018654Y004482D02*
X018761Y004376D01*
X018974Y004376D01*
X019298Y004482D02*
X019298Y004696D01*
X019405Y004803D01*
X019725Y004803D01*
X019725Y005016D02*
X019725Y004376D01*
X019405Y004376D01*
X019298Y004482D01*
X019943Y004376D02*
X020263Y004376D01*
X020370Y004482D01*
X020263Y004589D01*
X020050Y004589D01*
X019943Y004696D01*
X020050Y004803D01*
X020370Y004803D01*
X022072Y004909D02*
X022179Y005016D01*
X022392Y005016D01*
X022499Y004909D01*
X022499Y004803D01*
X022072Y004376D01*
X022499Y004376D01*
X022716Y004482D02*
X023143Y004909D01*
X023143Y004482D01*
X023037Y004376D01*
X022823Y004376D01*
X022716Y004482D01*
X022716Y004909D01*
X022823Y005016D01*
X023037Y005016D01*
X023143Y004909D01*
X023361Y004803D02*
X023574Y005016D01*
X023574Y004376D01*
X023361Y004376D02*
X023788Y004376D01*
X024005Y004376D02*
X024432Y004376D01*
X024219Y004376D02*
X024219Y005016D01*
X024005Y004803D01*
X024650Y004909D02*
X024757Y005016D01*
X024970Y005016D01*
X025077Y004909D01*
X024650Y004482D01*
X024757Y004376D01*
X024970Y004376D01*
X025077Y004482D01*
X025077Y004909D01*
X025294Y004696D02*
X025615Y004696D01*
X025721Y004589D01*
X025721Y004482D01*
X025615Y004376D01*
X025401Y004376D01*
X025294Y004482D01*
X025294Y004696D01*
X025508Y004909D01*
X025721Y005016D01*
X025939Y004909D02*
X026046Y005016D01*
X026259Y005016D01*
X026366Y004909D01*
X026366Y004803D01*
X025939Y004376D01*
X026366Y004376D01*
X026584Y004376D02*
X027011Y004803D01*
X027011Y004909D01*
X026904Y005016D01*
X026690Y005016D01*
X026584Y004909D01*
X026584Y004376D02*
X027011Y004376D01*
X024650Y004482D02*
X024650Y004909D01*
M02*
